<mxfile host="app.diagrams.net" modified="2022-07-08T08:53:04.242Z" agent="5.0 (Macintosh; Intel Mac OS X 10_15_7) AppleWebKit/537.36 (KHTML, like Gecko) Chrome/103.0.0.0 Safari/537.36" etag="99aAfCYWJ9tPifaTQOnX" version="17.1.3" type="github">
  <diagram id="AqJppp-fquyUW5mzI5YQ" name="Page-1">
    <mxGraphModel dx="2596" dy="1504" grid="1" gridSize="10" guides="1" tooltips="1" connect="1" arrows="1" fold="1" page="1" pageScale="1" pageWidth="827" pageHeight="1169" math="0" shadow="0">
      <root>
        <mxCell id="0" />
        <mxCell id="1" parent="0" />
        <mxCell id="2C_4C3Kt78hkYXCEWfJR-1" value="Proof.Base.wrap.t&amp;nbsp;" style="ellipse;whiteSpace=wrap;html=1;fontSize=14;" vertex="1" parent="1">
          <mxGeometry x="140" y="782" width="170" height="70" as="geometry" />
        </mxCell>
        <mxCell id="2C_4C3Kt78hkYXCEWfJR-2" value="Step.Statement" style="whiteSpace=wrap;html=1;rounded=1;arcSize=50;align=center;verticalAlign=middle;strokeWidth=1;autosize=1;spacing=4;treeFolding=1;treeMoving=1;newEdgeStyle={&quot;edgeStyle&quot;:&quot;entityRelationEdgeStyle&quot;,&quot;startArrow&quot;:&quot;none&quot;,&quot;endArrow&quot;:&quot;none&quot;,&quot;segment&quot;:10,&quot;curved&quot;:1};fontSize=14;" vertex="1" parent="1">
          <mxGeometry x="340" y="612" width="140" height="30" as="geometry" />
        </mxCell>
        <mxCell id="2C_4C3Kt78hkYXCEWfJR-3" value="" style="edgeStyle=entityRelationEdgeStyle;startArrow=none;endArrow=none;segment=10;curved=1;rounded=0;fontSize=14;exitX=0.785;exitY=0.079;exitDx=0;exitDy=0;exitPerimeter=0;" edge="1" parent="1" source="2C_4C3Kt78hkYXCEWfJR-1" target="2C_4C3Kt78hkYXCEWfJR-2">
          <mxGeometry relative="1" as="geometry">
            <mxPoint x="360" y="722" as="sourcePoint" />
          </mxGeometry>
        </mxCell>
        <mxCell id="2C_4C3Kt78hkYXCEWfJR-6" value="pre_evals" style="whiteSpace=wrap;html=1;rounded=1;arcSize=50;align=center;verticalAlign=middle;strokeWidth=1;autosize=1;spacing=4;treeFolding=1;treeMoving=1;newEdgeStyle={&quot;edgeStyle&quot;:&quot;entityRelationEdgeStyle&quot;,&quot;startArrow&quot;:&quot;none&quot;,&quot;endArrow&quot;:&quot;none&quot;,&quot;segment&quot;:10,&quot;curved&quot;:1};fontSize=14;" vertex="1" parent="1">
          <mxGeometry x="335" y="892" width="150" height="33" as="geometry" />
        </mxCell>
        <mxCell id="2C_4C3Kt78hkYXCEWfJR-7" value="" style="edgeStyle=entityRelationEdgeStyle;startArrow=none;endArrow=none;segment=10;curved=1;rounded=0;fontSize=14;exitX=0.926;exitY=0.764;exitDx=0;exitDy=0;exitPerimeter=0;" edge="1" parent="1" source="2C_4C3Kt78hkYXCEWfJR-1" target="2C_4C3Kt78hkYXCEWfJR-6">
          <mxGeometry relative="1" as="geometry">
            <mxPoint x="300" y="866" as="sourcePoint" />
          </mxGeometry>
        </mxCell>
        <mxCell id="2C_4C3Kt78hkYXCEWfJR-8" value="proof: Tick.Proof" style="whiteSpace=wrap;html=1;rounded=1;arcSize=50;align=center;verticalAlign=middle;strokeWidth=1;autosize=1;spacing=4;treeFolding=1;treeMoving=1;newEdgeStyle={&quot;edgeStyle&quot;:&quot;entityRelationEdgeStyle&quot;,&quot;startArrow&quot;:&quot;none&quot;,&quot;endArrow&quot;:&quot;none&quot;,&quot;segment&quot;:10,&quot;curved&quot;:1};fontSize=14;" vertex="1" parent="1">
          <mxGeometry x="335" y="1042" width="140" height="30" as="geometry" />
        </mxCell>
        <mxCell id="2C_4C3Kt78hkYXCEWfJR-9" value="" style="edgeStyle=entityRelationEdgeStyle;startArrow=none;endArrow=none;segment=10;curved=1;rounded=0;fontSize=14;" edge="1" parent="1" target="2C_4C3Kt78hkYXCEWfJR-8">
          <mxGeometry relative="1" as="geometry">
            <mxPoint x="266.99999999999955" y="850" as="sourcePoint" />
          </mxGeometry>
        </mxCell>
        <mxCell id="2C_4C3Kt78hkYXCEWfJR-10" value="pass_through" style="whiteSpace=wrap;html=1;rounded=1;arcSize=50;align=center;verticalAlign=middle;strokeWidth=1;autosize=1;spacing=4;treeFolding=1;treeMoving=1;newEdgeStyle={&quot;edgeStyle&quot;:&quot;entityRelationEdgeStyle&quot;,&quot;startArrow&quot;:&quot;none&quot;,&quot;endArrow&quot;:&quot;none&quot;,&quot;segment&quot;:10,&quot;curved&quot;:1};fontSize=14;" vertex="1" parent="1">
          <mxGeometry x="495" y="518" width="125" height="40" as="geometry" />
        </mxCell>
        <mxCell id="2C_4C3Kt78hkYXCEWfJR-11" value="" style="edgeStyle=entityRelationEdgeStyle;startArrow=none;endArrow=none;segment=10;curved=1;rounded=0;fontSize=14;" edge="1" parent="1" target="2C_4C3Kt78hkYXCEWfJR-10">
          <mxGeometry relative="1" as="geometry">
            <mxPoint x="470" y="612" as="sourcePoint" />
          </mxGeometry>
        </mxCell>
        <mxCell id="2C_4C3Kt78hkYXCEWfJR-12" value="Proof_state" style="whiteSpace=wrap;html=1;rounded=1;arcSize=50;align=center;verticalAlign=middle;strokeWidth=1;autosize=1;spacing=4;treeFolding=1;treeMoving=1;newEdgeStyle={&quot;edgeStyle&quot;:&quot;entityRelationEdgeStyle&quot;,&quot;startArrow&quot;:&quot;none&quot;,&quot;endArrow&quot;:&quot;none&quot;,&quot;segment&quot;:10,&quot;curved&quot;:1};fontSize=14;" vertex="1" parent="1">
          <mxGeometry x="518" y="690" width="139" height="32" as="geometry" />
        </mxCell>
        <mxCell id="2C_4C3Kt78hkYXCEWfJR-13" value="" style="edgeStyle=entityRelationEdgeStyle;startArrow=none;endArrow=none;segment=10;curved=1;rounded=0;fontSize=14;" edge="1" parent="1" target="2C_4C3Kt78hkYXCEWfJR-12">
          <mxGeometry relative="1" as="geometry">
            <mxPoint x="476.99999999999955" y="635" as="sourcePoint" />
          </mxGeometry>
        </mxCell>
        <mxCell id="2C_4C3Kt78hkYXCEWfJR-14" value="app_state" style="whiteSpace=wrap;html=1;rounded=1;arcSize=50;align=center;verticalAlign=middle;strokeWidth=1;autosize=1;spacing=4;treeFolding=1;treeMoving=1;newEdgeStyle={&quot;edgeStyle&quot;:&quot;entityRelationEdgeStyle&quot;,&quot;startArrow&quot;:&quot;none&quot;,&quot;endArrow&quot;:&quot;none&quot;,&quot;segment&quot;:10,&quot;curved&quot;:1};" vertex="1" parent="1">
          <mxGeometry x="677" y="400" width="127.5" height="30" as="geometry" />
        </mxCell>
        <mxCell id="2C_4C3Kt78hkYXCEWfJR-15" value="" style="edgeStyle=entityRelationEdgeStyle;startArrow=none;endArrow=none;segment=10;curved=1;rounded=0;" edge="1" parent="1" target="2C_4C3Kt78hkYXCEWfJR-14">
          <mxGeometry relative="1" as="geometry">
            <mxPoint x="625" y="528" as="sourcePoint" />
          </mxGeometry>
        </mxCell>
        <mxCell id="2C_4C3Kt78hkYXCEWfJR-16" value="dlog_plonk_index" style="whiteSpace=wrap;html=1;rounded=1;arcSize=50;align=center;verticalAlign=middle;strokeWidth=1;autosize=1;spacing=4;treeFolding=1;treeMoving=1;newEdgeStyle={&quot;edgeStyle&quot;:&quot;entityRelationEdgeStyle&quot;,&quot;startArrow&quot;:&quot;none&quot;,&quot;endArrow&quot;:&quot;none&quot;,&quot;segment&quot;:10,&quot;curved&quot;:1};" vertex="1" parent="1">
          <mxGeometry x="688.25" y="466" width="121.25" height="32" as="geometry" />
        </mxCell>
        <mxCell id="2C_4C3Kt78hkYXCEWfJR-17" value="" style="edgeStyle=entityRelationEdgeStyle;startArrow=none;endArrow=none;segment=10;curved=1;rounded=0;" edge="1" parent="1" target="2C_4C3Kt78hkYXCEWfJR-16">
          <mxGeometry relative="1" as="geometry">
            <mxPoint x="625" y="538" as="sourcePoint" />
          </mxGeometry>
        </mxCell>
        <mxCell id="2C_4C3Kt78hkYXCEWfJR-18" value="challenge_polynomial_commitments" style="whiteSpace=wrap;html=1;rounded=1;arcSize=50;align=center;verticalAlign=middle;strokeWidth=1;autosize=1;spacing=4;treeFolding=1;treeMoving=1;newEdgeStyle={&quot;edgeStyle&quot;:&quot;entityRelationEdgeStyle&quot;,&quot;startArrow&quot;:&quot;none&quot;,&quot;endArrow&quot;:&quot;none&quot;,&quot;segment&quot;:10,&quot;curved&quot;:1};" vertex="1" parent="1">
          <mxGeometry x="687" y="518" width="240" height="30" as="geometry" />
        </mxCell>
        <mxCell id="2C_4C3Kt78hkYXCEWfJR-19" value="" style="edgeStyle=entityRelationEdgeStyle;startArrow=none;endArrow=none;segment=10;curved=1;rounded=0;exitX=1;exitY=0.5;exitDx=0;exitDy=0;" edge="1" parent="1" source="2C_4C3Kt78hkYXCEWfJR-10" target="2C_4C3Kt78hkYXCEWfJR-18">
          <mxGeometry relative="1" as="geometry">
            <mxPoint x="674" y="586.25" as="sourcePoint" />
          </mxGeometry>
        </mxCell>
        <mxCell id="2C_4C3Kt78hkYXCEWfJR-20" value="old_bulletproof_challenges" style="whiteSpace=wrap;html=1;rounded=1;arcSize=50;align=center;verticalAlign=middle;strokeWidth=1;autosize=1;spacing=4;treeFolding=1;treeMoving=1;newEdgeStyle={&quot;edgeStyle&quot;:&quot;entityRelationEdgeStyle&quot;,&quot;startArrow&quot;:&quot;none&quot;,&quot;endArrow&quot;:&quot;none&quot;,&quot;segment&quot;:10,&quot;curved&quot;:1};" vertex="1" parent="1">
          <mxGeometry x="696.3800000000001" y="572" width="190" height="30" as="geometry" />
        </mxCell>
        <mxCell id="2C_4C3Kt78hkYXCEWfJR-21" value="" style="edgeStyle=entityRelationEdgeStyle;startArrow=none;endArrow=none;segment=10;curved=1;rounded=0;exitX=1;exitY=0.5;exitDx=0;exitDy=0;" edge="1" parent="1" source="2C_4C3Kt78hkYXCEWfJR-10" target="2C_4C3Kt78hkYXCEWfJR-20">
          <mxGeometry relative="1" as="geometry">
            <mxPoint x="674" y="586.25" as="sourcePoint" />
          </mxGeometry>
        </mxCell>
        <mxCell id="2C_4C3Kt78hkYXCEWfJR-22" value="&amp;nbsp; &amp;nbsp; &amp;nbsp;deferred_values&lt;br&gt;&amp;nbsp; &amp;nbsp; &amp;nbsp; &amp;nbsp;(step_proof)" style="whiteSpace=wrap;html=1;rounded=1;arcSize=50;align=left;verticalAlign=middle;strokeWidth=1;autosize=1;spacing=4;treeFolding=1;treeMoving=1;newEdgeStyle={&quot;edgeStyle&quot;:&quot;entityRelationEdgeStyle&quot;,&quot;startArrow&quot;:&quot;none&quot;,&quot;endArrow&quot;:&quot;none&quot;,&quot;segment&quot;:10,&quot;curved&quot;:1};" vertex="1" parent="1">
          <mxGeometry x="696.3799999999999" y="782" width="140" height="40" as="geometry" />
        </mxCell>
        <mxCell id="2C_4C3Kt78hkYXCEWfJR-23" value="" style="edgeStyle=entityRelationEdgeStyle;startArrow=none;endArrow=none;segment=10;curved=1;rounded=0;exitX=0.957;exitY=0.969;exitDx=0;exitDy=0;exitPerimeter=0;" edge="1" parent="1" source="2C_4C3Kt78hkYXCEWfJR-12" target="2C_4C3Kt78hkYXCEWfJR-22">
          <mxGeometry relative="1" as="geometry">
            <mxPoint x="549" y="765" as="sourcePoint" />
          </mxGeometry>
        </mxCell>
        <mxCell id="2C_4C3Kt78hkYXCEWfJR-24" value="&lt;font style=&quot;font-size: 14px&quot;&gt;sponge_digest_before_evaluations&lt;/font&gt;" style="whiteSpace=wrap;html=1;rounded=1;arcSize=50;align=center;verticalAlign=middle;strokeWidth=1;autosize=1;spacing=4;treeFolding=1;treeMoving=1;newEdgeStyle={&quot;edgeStyle&quot;:&quot;entityRelationEdgeStyle&quot;,&quot;startArrow&quot;:&quot;none&quot;,&quot;endArrow&quot;:&quot;none&quot;,&quot;segment&quot;:10,&quot;curved&quot;:1};" vertex="1" parent="1">
          <mxGeometry x="696.3800000000001" y="728" width="260" height="30" as="geometry" />
        </mxCell>
        <mxCell id="2C_4C3Kt78hkYXCEWfJR-25" value="" style="edgeStyle=entityRelationEdgeStyle;startArrow=none;endArrow=none;segment=10;curved=1;rounded=0;exitX=1;exitY=0.75;exitDx=0;exitDy=0;" edge="1" parent="1" source="2C_4C3Kt78hkYXCEWfJR-12" target="2C_4C3Kt78hkYXCEWfJR-24">
          <mxGeometry relative="1" as="geometry">
            <mxPoint x="846" y="760" as="sourcePoint" />
          </mxGeometry>
        </mxCell>
        <mxCell id="2C_4C3Kt78hkYXCEWfJR-26" value="&amp;nbsp; &amp;nbsp; &amp;nbsp; &amp;nbsp;me_only" style="whiteSpace=wrap;html=1;rounded=1;arcSize=50;align=left;verticalAlign=middle;strokeWidth=1;autosize=1;spacing=4;treeFolding=1;treeMoving=1;newEdgeStyle={&quot;edgeStyle&quot;:&quot;entityRelationEdgeStyle&quot;,&quot;startArrow&quot;:&quot;none&quot;,&quot;endArrow&quot;:&quot;none&quot;,&quot;segment&quot;:10,&quot;curved&quot;:1};" vertex="1" collapsed="1" parent="1">
          <mxGeometry x="699.5" y="660" width="110" height="30" as="geometry" />
        </mxCell>
        <mxCell id="2C_4C3Kt78hkYXCEWfJR-27" value="" style="edgeStyle=entityRelationEdgeStyle;startArrow=none;endArrow=none;segment=10;curved=1;rounded=0;exitX=1;exitY=0.5;exitDx=0;exitDy=0;" edge="1" parent="1" source="2C_4C3Kt78hkYXCEWfJR-12" target="2C_4C3Kt78hkYXCEWfJR-26">
          <mxGeometry relative="1" as="geometry">
            <mxPoint x="549" y="765" as="sourcePoint" />
          </mxGeometry>
        </mxCell>
        <mxCell id="2C_4C3Kt78hkYXCEWfJR-28" value="" style="edgeStyle=entityRelationEdgeStyle;startArrow=none;endArrow=none;segment=10;curved=1;rounded=0;fontSize=14;entryX=0;entryY=0.5;entryDx=0;entryDy=0;" edge="1" parent="1" target="2C_4C3Kt78hkYXCEWfJR-44">
          <mxGeometry relative="1" as="geometry">
            <mxPoint x="815" y="668" as="sourcePoint" />
          </mxGeometry>
        </mxCell>
        <mxCell id="2C_4C3Kt78hkYXCEWfJR-29" value="&lt;font style=&quot;font-size: 14px&quot;&gt;ft_eval1：为Tick.Field结构&lt;/font&gt;" style="whiteSpace=wrap;html=1;rounded=1;arcSize=50;align=center;verticalAlign=middle;strokeWidth=1;autosize=1;spacing=4;treeFolding=1;treeMoving=1;newEdgeStyle={&quot;edgeStyle&quot;:&quot;entityRelationEdgeStyle&quot;,&quot;startArrow&quot;:&quot;none&quot;,&quot;endArrow&quot;:&quot;none&quot;,&quot;segment&quot;:10,&quot;curved&quot;:1};" vertex="1" parent="1">
          <mxGeometry x="522" y="850" width="200" height="30" as="geometry" />
        </mxCell>
        <mxCell id="2C_4C3Kt78hkYXCEWfJR-30" value="" style="edgeStyle=entityRelationEdgeStyle;startArrow=none;endArrow=none;segment=10;curved=1;rounded=0;exitX=1;exitY=0.5;exitDx=0;exitDy=0;" edge="1" parent="1" source="2C_4C3Kt78hkYXCEWfJR-6" target="2C_4C3Kt78hkYXCEWfJR-29">
          <mxGeometry relative="1" as="geometry">
            <mxPoint x="527" y="941.25" as="sourcePoint" />
          </mxGeometry>
        </mxCell>
        <mxCell id="2C_4C3Kt78hkYXCEWfJR-31" value="&lt;font style=&quot;font-size: 14px&quot;&gt;evals：为2元结构&lt;/font&gt;" style="whiteSpace=wrap;html=1;rounded=1;arcSize=50;align=center;verticalAlign=middle;strokeWidth=1;autosize=1;spacing=4;treeFolding=1;treeMoving=1;newEdgeStyle={&quot;edgeStyle&quot;:&quot;entityRelationEdgeStyle&quot;,&quot;startArrow&quot;:&quot;none&quot;,&quot;endArrow&quot;:&quot;none&quot;,&quot;segment&quot;:10,&quot;curved&quot;:1};" vertex="1" parent="1">
          <mxGeometry x="530" y="906" width="150" height="30" as="geometry" />
        </mxCell>
        <mxCell id="2C_4C3Kt78hkYXCEWfJR-32" value="" style="edgeStyle=entityRelationEdgeStyle;startArrow=none;endArrow=none;segment=10;curved=1;rounded=0;" edge="1" parent="1" target="2C_4C3Kt78hkYXCEWfJR-31">
          <mxGeometry relative="1" as="geometry">
            <mxPoint x="486.99999999999955" y="910" as="sourcePoint" />
          </mxGeometry>
        </mxCell>
        <mxCell id="2C_4C3Kt78hkYXCEWfJR-33" value="&lt;blockquote style=&quot;margin: 0 0 0 40px ; border: none ; padding: 0px&quot;&gt;&lt;font style=&quot;font-size: 14px&quot;&gt;messages&lt;/font&gt;&lt;/blockquote&gt;&lt;blockquote style=&quot;margin: 0 0 0 40px ; border: none ; padding: 0px&quot;&gt;&lt;font style=&quot;font-size: 14px&quot;&gt;(w, z, t 承诺)&lt;/font&gt;&lt;/blockquote&gt;" style="whiteSpace=wrap;html=1;rounded=1;arcSize=50;align=left;verticalAlign=middle;strokeWidth=1;autosize=1;spacing=4;treeFolding=1;treeMoving=1;newEdgeStyle={&quot;edgeStyle&quot;:&quot;entityRelationEdgeStyle&quot;,&quot;startArrow&quot;:&quot;none&quot;,&quot;endArrow&quot;:&quot;none&quot;,&quot;segment&quot;:10,&quot;curved&quot;:1};" vertex="1" parent="1">
          <mxGeometry x="517" y="990" width="160" height="45" as="geometry" />
        </mxCell>
        <mxCell id="2C_4C3Kt78hkYXCEWfJR-34" value="" style="edgeStyle=entityRelationEdgeStyle;startArrow=none;endArrow=none;segment=10;curved=1;rounded=0;entryX=0;entryY=0.5;entryDx=0;entryDy=0;" edge="1" parent="1" target="2C_4C3Kt78hkYXCEWfJR-33">
          <mxGeometry relative="1" as="geometry">
            <mxPoint x="476.99999999999955" y="1050" as="sourcePoint" />
          </mxGeometry>
        </mxCell>
        <mxCell id="2C_4C3Kt78hkYXCEWfJR-35" value="&lt;blockquote style=&quot;margin: 0 0 0 40px ; border: none ; padding: 0px&quot;&gt;&lt;font style=&quot;font-size: 14px&quot;&gt;Openings&lt;/font&gt;&lt;/blockquote&gt;" style="whiteSpace=wrap;html=1;rounded=1;arcSize=50;align=left;verticalAlign=middle;strokeWidth=1;autosize=1;spacing=4;treeFolding=1;treeMoving=1;newEdgeStyle={&quot;edgeStyle&quot;:&quot;entityRelationEdgeStyle&quot;,&quot;startArrow&quot;:&quot;none&quot;,&quot;endArrow&quot;:&quot;none&quot;,&quot;segment&quot;:10,&quot;curved&quot;:1};" vertex="1" parent="1">
          <mxGeometry x="518" y="1090" width="140" height="30" as="geometry" />
        </mxCell>
        <mxCell id="2C_4C3Kt78hkYXCEWfJR-36" value="" style="edgeStyle=entityRelationEdgeStyle;startArrow=none;endArrow=none;segment=10;curved=1;rounded=0;" edge="1" parent="1" target="2C_4C3Kt78hkYXCEWfJR-35">
          <mxGeometry relative="1" as="geometry">
            <mxPoint x="476.99999999999955" y="1060" as="sourcePoint" />
          </mxGeometry>
        </mxCell>
        <mxCell id="2C_4C3Kt78hkYXCEWfJR-37" value="&lt;font style=&quot;font-size: 14px&quot;&gt;proof：Bulletproof结构。&lt;/font&gt;" style="whiteSpace=wrap;html=1;rounded=1;arcSize=50;align=center;verticalAlign=middle;strokeWidth=1;autosize=1;spacing=4;treeFolding=1;treeMoving=1;newEdgeStyle={&quot;edgeStyle&quot;:&quot;entityRelationEdgeStyle&quot;,&quot;startArrow&quot;:&quot;none&quot;,&quot;endArrow&quot;:&quot;none&quot;,&quot;segment&quot;:10,&quot;curved&quot;:1};" vertex="1" parent="1">
          <mxGeometry x="707" y="1035" width="200" height="30" as="geometry" />
        </mxCell>
        <mxCell id="2C_4C3Kt78hkYXCEWfJR-38" value="" style="edgeStyle=entityRelationEdgeStyle;startArrow=none;endArrow=none;segment=10;curved=1;rounded=0;exitX=1;exitY=0.25;exitDx=0;exitDy=0;" edge="1" parent="1" source="2C_4C3Kt78hkYXCEWfJR-35" target="2C_4C3Kt78hkYXCEWfJR-37">
          <mxGeometry relative="1" as="geometry">
            <mxPoint x="734" y="1145" as="sourcePoint" />
          </mxGeometry>
        </mxCell>
        <mxCell id="2C_4C3Kt78hkYXCEWfJR-39" value="evals：2元结构" style="whiteSpace=wrap;html=1;rounded=1;arcSize=50;align=center;verticalAlign=middle;strokeWidth=1;autosize=1;spacing=4;treeFolding=1;treeMoving=1;newEdgeStyle={&quot;edgeStyle&quot;:&quot;entityRelationEdgeStyle&quot;,&quot;startArrow&quot;:&quot;none&quot;,&quot;endArrow&quot;:&quot;none&quot;,&quot;segment&quot;:10,&quot;curved&quot;:1};" vertex="1" parent="1">
          <mxGeometry x="707" y="1100" width="120" height="30" as="geometry" />
        </mxCell>
        <mxCell id="2C_4C3Kt78hkYXCEWfJR-40" value="" style="edgeStyle=entityRelationEdgeStyle;startArrow=none;endArrow=none;segment=10;curved=1;rounded=0;exitX=1;exitY=0.5;exitDx=0;exitDy=0;" edge="1" parent="1" source="2C_4C3Kt78hkYXCEWfJR-35" target="2C_4C3Kt78hkYXCEWfJR-39">
          <mxGeometry relative="1" as="geometry">
            <mxPoint x="734" y="1145" as="sourcePoint" />
          </mxGeometry>
        </mxCell>
        <mxCell id="2C_4C3Kt78hkYXCEWfJR-41" value="ft_eval1：为Fp类型。" style="whiteSpace=wrap;html=1;rounded=1;arcSize=50;align=center;verticalAlign=middle;strokeWidth=1;autosize=1;spacing=4;treeFolding=1;treeMoving=1;newEdgeStyle={&quot;edgeStyle&quot;:&quot;entityRelationEdgeStyle&quot;,&quot;startArrow&quot;:&quot;none&quot;,&quot;endArrow&quot;:&quot;none&quot;,&quot;segment&quot;:10,&quot;curved&quot;:1};" vertex="1" parent="1">
          <mxGeometry x="696.3800000000001" y="1180" width="160" height="30" as="geometry" />
        </mxCell>
        <mxCell id="2C_4C3Kt78hkYXCEWfJR-42" value="" style="edgeStyle=entityRelationEdgeStyle;startArrow=none;endArrow=none;segment=10;curved=1;rounded=0;exitX=1;exitY=0.75;exitDx=0;exitDy=0;" edge="1" parent="1" source="2C_4C3Kt78hkYXCEWfJR-35" target="2C_4C3Kt78hkYXCEWfJR-41">
          <mxGeometry relative="1" as="geometry">
            <mxPoint x="734" y="1145" as="sourcePoint" />
          </mxGeometry>
        </mxCell>
        <mxCell id="2C_4C3Kt78hkYXCEWfJR-43" value="challenge_polynomial_commitment" style="whiteSpace=wrap;html=1;rounded=1;arcSize=50;align=center;verticalAlign=middle;strokeWidth=1;autosize=1;spacing=4;treeFolding=1;treeMoving=1;newEdgeStyle={&quot;edgeStyle&quot;:&quot;entityRelationEdgeStyle&quot;,&quot;startArrow&quot;:&quot;none&quot;,&quot;endArrow&quot;:&quot;none&quot;,&quot;segment&quot;:10,&quot;curved&quot;:1};" vertex="1" parent="1">
          <mxGeometry x="891.3800000000001" y="668" width="230" height="30" as="geometry" />
        </mxCell>
        <mxCell id="2C_4C3Kt78hkYXCEWfJR-44" value="old_bulletproof_challenges" style="whiteSpace=wrap;html=1;rounded=1;arcSize=50;align=center;verticalAlign=middle;strokeWidth=1;autosize=1;spacing=4;treeFolding=1;treeMoving=1;newEdgeStyle={&quot;edgeStyle&quot;:&quot;entityRelationEdgeStyle&quot;,&quot;startArrow&quot;:&quot;none&quot;,&quot;endArrow&quot;:&quot;none&quot;,&quot;segment&quot;:10,&quot;curved&quot;:1};" vertex="1" parent="1">
          <mxGeometry x="895" y="610" width="190" height="30" as="geometry" />
        </mxCell>
        <mxCell id="2C_4C3Kt78hkYXCEWfJR-45" value="" style="edgeStyle=entityRelationEdgeStyle;startArrow=none;endArrow=none;segment=10;curved=1;rounded=0;fontSize=14;entryX=0;entryY=0.5;entryDx=0;entryDy=0;" edge="1" parent="1" target="2C_4C3Kt78hkYXCEWfJR-43">
          <mxGeometry relative="1" as="geometry">
            <mxPoint x="815" y="678" as="sourcePoint" />
            <mxPoint x="1050" y="651" as="targetPoint" />
          </mxGeometry>
        </mxCell>
        <mxCell id="2C_4C3Kt78hkYXCEWfJR-46" value="Proof.Base.wrap.t&amp;nbsp;" style="ellipse;whiteSpace=wrap;html=1;fontSize=14;" vertex="1" parent="1">
          <mxGeometry x="138" y="1742" width="170" height="70" as="geometry" />
        </mxCell>
        <mxCell id="2C_4C3Kt78hkYXCEWfJR-47" value="Step.Statement" style="whiteSpace=wrap;html=1;rounded=1;arcSize=50;align=center;verticalAlign=middle;strokeWidth=1;autosize=1;spacing=4;treeFolding=1;treeMoving=1;newEdgeStyle={&quot;edgeStyle&quot;:&quot;entityRelationEdgeStyle&quot;,&quot;startArrow&quot;:&quot;none&quot;,&quot;endArrow&quot;:&quot;none&quot;,&quot;segment&quot;:10,&quot;curved&quot;:1};fontSize=14;" vertex="1" parent="1">
          <mxGeometry x="338" y="1572" width="140" height="30" as="geometry" />
        </mxCell>
        <mxCell id="2C_4C3Kt78hkYXCEWfJR-48" value="" style="edgeStyle=entityRelationEdgeStyle;startArrow=none;endArrow=none;segment=10;curved=1;rounded=0;fontSize=14;exitX=0.785;exitY=0.079;exitDx=0;exitDy=0;exitPerimeter=0;" edge="1" parent="1" source="2C_4C3Kt78hkYXCEWfJR-46" target="2C_4C3Kt78hkYXCEWfJR-47">
          <mxGeometry relative="1" as="geometry">
            <mxPoint x="358" y="1682" as="sourcePoint" />
          </mxGeometry>
        </mxCell>
        <mxCell id="2C_4C3Kt78hkYXCEWfJR-51" value="pre_evals" style="whiteSpace=wrap;html=1;rounded=1;arcSize=50;align=center;verticalAlign=middle;strokeWidth=1;autosize=1;spacing=4;treeFolding=1;treeMoving=1;newEdgeStyle={&quot;edgeStyle&quot;:&quot;entityRelationEdgeStyle&quot;,&quot;startArrow&quot;:&quot;none&quot;,&quot;endArrow&quot;:&quot;none&quot;,&quot;segment&quot;:10,&quot;curved&quot;:1};fontSize=14;" vertex="1" parent="1">
          <mxGeometry x="333" y="1852" width="150" height="33" as="geometry" />
        </mxCell>
        <mxCell id="2C_4C3Kt78hkYXCEWfJR-52" value="" style="edgeStyle=entityRelationEdgeStyle;startArrow=none;endArrow=none;segment=10;curved=1;rounded=0;fontSize=14;exitX=0.926;exitY=0.764;exitDx=0;exitDy=0;exitPerimeter=0;" edge="1" parent="1" source="2C_4C3Kt78hkYXCEWfJR-46" target="2C_4C3Kt78hkYXCEWfJR-51">
          <mxGeometry relative="1" as="geometry">
            <mxPoint x="298" y="1826" as="sourcePoint" />
          </mxGeometry>
        </mxCell>
        <mxCell id="2C_4C3Kt78hkYXCEWfJR-53" value="proof: Tick.Proof" style="whiteSpace=wrap;html=1;rounded=1;arcSize=50;align=center;verticalAlign=middle;strokeWidth=1;autosize=1;spacing=4;treeFolding=1;treeMoving=1;newEdgeStyle={&quot;edgeStyle&quot;:&quot;entityRelationEdgeStyle&quot;,&quot;startArrow&quot;:&quot;none&quot;,&quot;endArrow&quot;:&quot;none&quot;,&quot;segment&quot;:10,&quot;curved&quot;:1};fontSize=14;" vertex="1" parent="1">
          <mxGeometry x="333" y="2002" width="140" height="30" as="geometry" />
        </mxCell>
        <mxCell id="2C_4C3Kt78hkYXCEWfJR-54" value="" style="edgeStyle=entityRelationEdgeStyle;startArrow=none;endArrow=none;segment=10;curved=1;rounded=0;fontSize=14;" edge="1" parent="1" target="2C_4C3Kt78hkYXCEWfJR-53">
          <mxGeometry relative="1" as="geometry">
            <mxPoint x="264.99999999999955" y="1810" as="sourcePoint" />
          </mxGeometry>
        </mxCell>
        <mxCell id="2C_4C3Kt78hkYXCEWfJR-55" value="pass_through" style="whiteSpace=wrap;html=1;rounded=1;arcSize=50;align=center;verticalAlign=middle;strokeWidth=1;autosize=1;spacing=4;treeFolding=1;treeMoving=1;newEdgeStyle={&quot;edgeStyle&quot;:&quot;entityRelationEdgeStyle&quot;,&quot;startArrow&quot;:&quot;none&quot;,&quot;endArrow&quot;:&quot;none&quot;,&quot;segment&quot;:10,&quot;curved&quot;:1};fontSize=14;" vertex="1" parent="1">
          <mxGeometry x="493" y="1478" width="125" height="40" as="geometry" />
        </mxCell>
        <mxCell id="2C_4C3Kt78hkYXCEWfJR-56" value="" style="edgeStyle=entityRelationEdgeStyle;startArrow=none;endArrow=none;segment=10;curved=1;rounded=0;fontSize=14;" edge="1" parent="1" target="2C_4C3Kt78hkYXCEWfJR-55">
          <mxGeometry relative="1" as="geometry">
            <mxPoint x="468" y="1572" as="sourcePoint" />
          </mxGeometry>
        </mxCell>
        <mxCell id="2C_4C3Kt78hkYXCEWfJR-57" value="Proof_state" style="whiteSpace=wrap;html=1;rounded=1;arcSize=50;align=center;verticalAlign=middle;strokeWidth=1;autosize=1;spacing=4;treeFolding=1;treeMoving=1;newEdgeStyle={&quot;edgeStyle&quot;:&quot;entityRelationEdgeStyle&quot;,&quot;startArrow&quot;:&quot;none&quot;,&quot;endArrow&quot;:&quot;none&quot;,&quot;segment&quot;:10,&quot;curved&quot;:1};fontSize=14;" vertex="1" parent="1">
          <mxGeometry x="516" y="1650" width="139" height="32" as="geometry" />
        </mxCell>
        <mxCell id="2C_4C3Kt78hkYXCEWfJR-58" value="" style="edgeStyle=entityRelationEdgeStyle;startArrow=none;endArrow=none;segment=10;curved=1;rounded=0;fontSize=14;" edge="1" parent="1" target="2C_4C3Kt78hkYXCEWfJR-57">
          <mxGeometry relative="1" as="geometry">
            <mxPoint x="474.99999999999955" y="1595" as="sourcePoint" />
          </mxGeometry>
        </mxCell>
        <mxCell id="2C_4C3Kt78hkYXCEWfJR-59" value="app_state" style="whiteSpace=wrap;html=1;rounded=1;arcSize=50;align=center;verticalAlign=middle;strokeWidth=1;autosize=1;spacing=4;treeFolding=1;treeMoving=1;newEdgeStyle={&quot;edgeStyle&quot;:&quot;entityRelationEdgeStyle&quot;,&quot;startArrow&quot;:&quot;none&quot;,&quot;endArrow&quot;:&quot;none&quot;,&quot;segment&quot;:10,&quot;curved&quot;:1};" vertex="1" parent="1">
          <mxGeometry x="675" y="1360" width="127.5" height="30" as="geometry" />
        </mxCell>
        <mxCell id="2C_4C3Kt78hkYXCEWfJR-60" value="" style="edgeStyle=entityRelationEdgeStyle;startArrow=none;endArrow=none;segment=10;curved=1;rounded=0;" edge="1" parent="1" target="2C_4C3Kt78hkYXCEWfJR-59">
          <mxGeometry relative="1" as="geometry">
            <mxPoint x="623" y="1488" as="sourcePoint" />
          </mxGeometry>
        </mxCell>
        <mxCell id="2C_4C3Kt78hkYXCEWfJR-61" value="dlog_plonk_index" style="whiteSpace=wrap;html=1;rounded=1;arcSize=50;align=center;verticalAlign=middle;strokeWidth=1;autosize=1;spacing=4;treeFolding=1;treeMoving=1;newEdgeStyle={&quot;edgeStyle&quot;:&quot;entityRelationEdgeStyle&quot;,&quot;startArrow&quot;:&quot;none&quot;,&quot;endArrow&quot;:&quot;none&quot;,&quot;segment&quot;:10,&quot;curved&quot;:1};" vertex="1" parent="1">
          <mxGeometry x="686.25" y="1426" width="121.25" height="32" as="geometry" />
        </mxCell>
        <mxCell id="2C_4C3Kt78hkYXCEWfJR-62" value="" style="edgeStyle=entityRelationEdgeStyle;startArrow=none;endArrow=none;segment=10;curved=1;rounded=0;" edge="1" parent="1" target="2C_4C3Kt78hkYXCEWfJR-61">
          <mxGeometry relative="1" as="geometry">
            <mxPoint x="623" y="1498" as="sourcePoint" />
          </mxGeometry>
        </mxCell>
        <mxCell id="2C_4C3Kt78hkYXCEWfJR-63" value="challenge_polynomial_commitments" style="whiteSpace=wrap;html=1;rounded=1;arcSize=50;align=center;verticalAlign=middle;strokeWidth=1;autosize=1;spacing=4;treeFolding=1;treeMoving=1;newEdgeStyle={&quot;edgeStyle&quot;:&quot;entityRelationEdgeStyle&quot;,&quot;startArrow&quot;:&quot;none&quot;,&quot;endArrow&quot;:&quot;none&quot;,&quot;segment&quot;:10,&quot;curved&quot;:1};" vertex="1" parent="1">
          <mxGeometry x="685" y="1478" width="240" height="30" as="geometry" />
        </mxCell>
        <mxCell id="2C_4C3Kt78hkYXCEWfJR-64" value="" style="edgeStyle=entityRelationEdgeStyle;startArrow=none;endArrow=none;segment=10;curved=1;rounded=0;exitX=1;exitY=0.5;exitDx=0;exitDy=0;" edge="1" parent="1" source="2C_4C3Kt78hkYXCEWfJR-55" target="2C_4C3Kt78hkYXCEWfJR-63">
          <mxGeometry relative="1" as="geometry">
            <mxPoint x="672" y="1546.25" as="sourcePoint" />
          </mxGeometry>
        </mxCell>
        <mxCell id="2C_4C3Kt78hkYXCEWfJR-65" value="old_bulletproof_challenges" style="whiteSpace=wrap;html=1;rounded=1;arcSize=50;align=center;verticalAlign=middle;strokeWidth=1;autosize=1;spacing=4;treeFolding=1;treeMoving=1;newEdgeStyle={&quot;edgeStyle&quot;:&quot;entityRelationEdgeStyle&quot;,&quot;startArrow&quot;:&quot;none&quot;,&quot;endArrow&quot;:&quot;none&quot;,&quot;segment&quot;:10,&quot;curved&quot;:1};" vertex="1" parent="1">
          <mxGeometry x="694.3800000000001" y="1532" width="190" height="30" as="geometry" />
        </mxCell>
        <mxCell id="2C_4C3Kt78hkYXCEWfJR-66" value="" style="edgeStyle=entityRelationEdgeStyle;startArrow=none;endArrow=none;segment=10;curved=1;rounded=0;exitX=1;exitY=0.5;exitDx=0;exitDy=0;" edge="1" parent="1" source="2C_4C3Kt78hkYXCEWfJR-55" target="2C_4C3Kt78hkYXCEWfJR-65">
          <mxGeometry relative="1" as="geometry">
            <mxPoint x="672" y="1546.25" as="sourcePoint" />
          </mxGeometry>
        </mxCell>
        <mxCell id="2C_4C3Kt78hkYXCEWfJR-67" value="&amp;nbsp; &amp;nbsp; &amp;nbsp;deferred_values&lt;br&gt;&amp;nbsp; &amp;nbsp; &amp;nbsp; &amp;nbsp;(step_proof)" style="whiteSpace=wrap;html=1;rounded=1;arcSize=50;align=left;verticalAlign=middle;strokeWidth=1;autosize=1;spacing=4;treeFolding=1;treeMoving=1;newEdgeStyle={&quot;edgeStyle&quot;:&quot;entityRelationEdgeStyle&quot;,&quot;startArrow&quot;:&quot;none&quot;,&quot;endArrow&quot;:&quot;none&quot;,&quot;segment&quot;:10,&quot;curved&quot;:1};" vertex="1" parent="1">
          <mxGeometry x="694.3799999999999" y="1742" width="140" height="40" as="geometry" />
        </mxCell>
        <mxCell id="2C_4C3Kt78hkYXCEWfJR-68" value="" style="edgeStyle=entityRelationEdgeStyle;startArrow=none;endArrow=none;segment=10;curved=1;rounded=0;exitX=0.957;exitY=0.969;exitDx=0;exitDy=0;exitPerimeter=0;" edge="1" parent="1" source="2C_4C3Kt78hkYXCEWfJR-57" target="2C_4C3Kt78hkYXCEWfJR-67">
          <mxGeometry relative="1" as="geometry">
            <mxPoint x="547" y="1725" as="sourcePoint" />
          </mxGeometry>
        </mxCell>
        <mxCell id="2C_4C3Kt78hkYXCEWfJR-69" value="&lt;font style=&quot;font-size: 14px&quot;&gt;sponge_digest_before_evaluations&lt;/font&gt;" style="whiteSpace=wrap;html=1;rounded=1;arcSize=50;align=center;verticalAlign=middle;strokeWidth=1;autosize=1;spacing=4;treeFolding=1;treeMoving=1;newEdgeStyle={&quot;edgeStyle&quot;:&quot;entityRelationEdgeStyle&quot;,&quot;startArrow&quot;:&quot;none&quot;,&quot;endArrow&quot;:&quot;none&quot;,&quot;segment&quot;:10,&quot;curved&quot;:1};" vertex="1" parent="1">
          <mxGeometry x="694.3800000000001" y="1688" width="260" height="30" as="geometry" />
        </mxCell>
        <mxCell id="2C_4C3Kt78hkYXCEWfJR-70" value="" style="edgeStyle=entityRelationEdgeStyle;startArrow=none;endArrow=none;segment=10;curved=1;rounded=0;exitX=1;exitY=0.75;exitDx=0;exitDy=0;" edge="1" parent="1" source="2C_4C3Kt78hkYXCEWfJR-57" target="2C_4C3Kt78hkYXCEWfJR-69">
          <mxGeometry relative="1" as="geometry">
            <mxPoint x="844" y="1720" as="sourcePoint" />
          </mxGeometry>
        </mxCell>
        <mxCell id="2C_4C3Kt78hkYXCEWfJR-71" value="&amp;nbsp; &amp;nbsp; &amp;nbsp; &amp;nbsp;me_only" style="whiteSpace=wrap;html=1;rounded=1;arcSize=50;align=left;verticalAlign=middle;strokeWidth=1;autosize=1;spacing=4;treeFolding=1;treeMoving=1;newEdgeStyle={&quot;edgeStyle&quot;:&quot;entityRelationEdgeStyle&quot;,&quot;startArrow&quot;:&quot;none&quot;,&quot;endArrow&quot;:&quot;none&quot;,&quot;segment&quot;:10,&quot;curved&quot;:1};" vertex="1" collapsed="1" parent="1">
          <mxGeometry x="697.5" y="1620" width="110" height="30" as="geometry" />
        </mxCell>
        <mxCell id="2C_4C3Kt78hkYXCEWfJR-72" value="" style="edgeStyle=entityRelationEdgeStyle;startArrow=none;endArrow=none;segment=10;curved=1;rounded=0;exitX=1;exitY=0.5;exitDx=0;exitDy=0;" edge="1" parent="1" source="2C_4C3Kt78hkYXCEWfJR-57" target="2C_4C3Kt78hkYXCEWfJR-71">
          <mxGeometry relative="1" as="geometry">
            <mxPoint x="547" y="1725" as="sourcePoint" />
          </mxGeometry>
        </mxCell>
        <mxCell id="2C_4C3Kt78hkYXCEWfJR-73" value="" style="edgeStyle=entityRelationEdgeStyle;startArrow=none;endArrow=none;segment=10;curved=1;rounded=0;fontSize=14;entryX=0;entryY=0.5;entryDx=0;entryDy=0;" edge="1" parent="1" target="2C_4C3Kt78hkYXCEWfJR-89">
          <mxGeometry relative="1" as="geometry">
            <mxPoint x="813" y="1628" as="sourcePoint" />
          </mxGeometry>
        </mxCell>
        <mxCell id="2C_4C3Kt78hkYXCEWfJR-74" value="&lt;font style=&quot;font-size: 14px&quot;&gt;ft_eval1：为Tick.Field结构&lt;/font&gt;" style="whiteSpace=wrap;html=1;rounded=1;arcSize=50;align=center;verticalAlign=middle;strokeWidth=1;autosize=1;spacing=4;treeFolding=1;treeMoving=1;newEdgeStyle={&quot;edgeStyle&quot;:&quot;entityRelationEdgeStyle&quot;,&quot;startArrow&quot;:&quot;none&quot;,&quot;endArrow&quot;:&quot;none&quot;,&quot;segment&quot;:10,&quot;curved&quot;:1};" vertex="1" parent="1">
          <mxGeometry x="520" y="1810" width="200" height="30" as="geometry" />
        </mxCell>
        <mxCell id="2C_4C3Kt78hkYXCEWfJR-75" value="" style="edgeStyle=entityRelationEdgeStyle;startArrow=none;endArrow=none;segment=10;curved=1;rounded=0;exitX=1;exitY=0.5;exitDx=0;exitDy=0;" edge="1" parent="1" source="2C_4C3Kt78hkYXCEWfJR-51" target="2C_4C3Kt78hkYXCEWfJR-74">
          <mxGeometry relative="1" as="geometry">
            <mxPoint x="525" y="1901.25" as="sourcePoint" />
          </mxGeometry>
        </mxCell>
        <mxCell id="2C_4C3Kt78hkYXCEWfJR-76" value="&lt;font style=&quot;font-size: 14px&quot;&gt;evals：为2元结构&lt;/font&gt;" style="whiteSpace=wrap;html=1;rounded=1;arcSize=50;align=center;verticalAlign=middle;strokeWidth=1;autosize=1;spacing=4;treeFolding=1;treeMoving=1;newEdgeStyle={&quot;edgeStyle&quot;:&quot;entityRelationEdgeStyle&quot;,&quot;startArrow&quot;:&quot;none&quot;,&quot;endArrow&quot;:&quot;none&quot;,&quot;segment&quot;:10,&quot;curved&quot;:1};" vertex="1" parent="1">
          <mxGeometry x="528" y="1866" width="150" height="30" as="geometry" />
        </mxCell>
        <mxCell id="2C_4C3Kt78hkYXCEWfJR-77" value="" style="edgeStyle=entityRelationEdgeStyle;startArrow=none;endArrow=none;segment=10;curved=1;rounded=0;" edge="1" parent="1" target="2C_4C3Kt78hkYXCEWfJR-76">
          <mxGeometry relative="1" as="geometry">
            <mxPoint x="484.99999999999955" y="1870" as="sourcePoint" />
          </mxGeometry>
        </mxCell>
        <mxCell id="2C_4C3Kt78hkYXCEWfJR-78" value="&lt;blockquote style=&quot;margin: 0 0 0 40px ; border: none ; padding: 0px&quot;&gt;&lt;font style=&quot;font-size: 14px&quot;&gt;messages&lt;/font&gt;&lt;/blockquote&gt;&lt;blockquote style=&quot;margin: 0 0 0 40px ; border: none ; padding: 0px&quot;&gt;&lt;font style=&quot;font-size: 14px&quot;&gt;(w, z, t 承诺)&lt;/font&gt;&lt;/blockquote&gt;" style="whiteSpace=wrap;html=1;rounded=1;arcSize=50;align=left;verticalAlign=middle;strokeWidth=1;autosize=1;spacing=4;treeFolding=1;treeMoving=1;newEdgeStyle={&quot;edgeStyle&quot;:&quot;entityRelationEdgeStyle&quot;,&quot;startArrow&quot;:&quot;none&quot;,&quot;endArrow&quot;:&quot;none&quot;,&quot;segment&quot;:10,&quot;curved&quot;:1};" vertex="1" parent="1">
          <mxGeometry x="515" y="1950" width="160" height="45" as="geometry" />
        </mxCell>
        <mxCell id="2C_4C3Kt78hkYXCEWfJR-79" value="" style="edgeStyle=entityRelationEdgeStyle;startArrow=none;endArrow=none;segment=10;curved=1;rounded=0;entryX=0;entryY=0.5;entryDx=0;entryDy=0;" edge="1" parent="1" target="2C_4C3Kt78hkYXCEWfJR-78">
          <mxGeometry relative="1" as="geometry">
            <mxPoint x="474.99999999999955" y="2010" as="sourcePoint" />
          </mxGeometry>
        </mxCell>
        <mxCell id="2C_4C3Kt78hkYXCEWfJR-80" value="&lt;blockquote style=&quot;margin: 0 0 0 40px ; border: none ; padding: 0px&quot;&gt;&lt;font style=&quot;font-size: 14px&quot;&gt;Openings&lt;/font&gt;&lt;/blockquote&gt;" style="whiteSpace=wrap;html=1;rounded=1;arcSize=50;align=left;verticalAlign=middle;strokeWidth=1;autosize=1;spacing=4;treeFolding=1;treeMoving=1;newEdgeStyle={&quot;edgeStyle&quot;:&quot;entityRelationEdgeStyle&quot;,&quot;startArrow&quot;:&quot;none&quot;,&quot;endArrow&quot;:&quot;none&quot;,&quot;segment&quot;:10,&quot;curved&quot;:1};" vertex="1" parent="1">
          <mxGeometry x="516" y="2050" width="140" height="30" as="geometry" />
        </mxCell>
        <mxCell id="2C_4C3Kt78hkYXCEWfJR-81" value="" style="edgeStyle=entityRelationEdgeStyle;startArrow=none;endArrow=none;segment=10;curved=1;rounded=0;" edge="1" parent="1" target="2C_4C3Kt78hkYXCEWfJR-80">
          <mxGeometry relative="1" as="geometry">
            <mxPoint x="474.99999999999955" y="2020" as="sourcePoint" />
          </mxGeometry>
        </mxCell>
        <mxCell id="2C_4C3Kt78hkYXCEWfJR-82" value="&lt;font style=&quot;font-size: 14px&quot;&gt;proof：Bulletproof结构。&lt;/font&gt;" style="whiteSpace=wrap;html=1;rounded=1;arcSize=50;align=center;verticalAlign=middle;strokeWidth=1;autosize=1;spacing=4;treeFolding=1;treeMoving=1;newEdgeStyle={&quot;edgeStyle&quot;:&quot;entityRelationEdgeStyle&quot;,&quot;startArrow&quot;:&quot;none&quot;,&quot;endArrow&quot;:&quot;none&quot;,&quot;segment&quot;:10,&quot;curved&quot;:1};" vertex="1" parent="1">
          <mxGeometry x="705" y="1995" width="200" height="30" as="geometry" />
        </mxCell>
        <mxCell id="2C_4C3Kt78hkYXCEWfJR-83" value="" style="edgeStyle=entityRelationEdgeStyle;startArrow=none;endArrow=none;segment=10;curved=1;rounded=0;exitX=1;exitY=0.25;exitDx=0;exitDy=0;" edge="1" parent="1" source="2C_4C3Kt78hkYXCEWfJR-80" target="2C_4C3Kt78hkYXCEWfJR-82">
          <mxGeometry relative="1" as="geometry">
            <mxPoint x="732" y="2105" as="sourcePoint" />
          </mxGeometry>
        </mxCell>
        <mxCell id="2C_4C3Kt78hkYXCEWfJR-84" value="evals：2元结构" style="whiteSpace=wrap;html=1;rounded=1;arcSize=50;align=center;verticalAlign=middle;strokeWidth=1;autosize=1;spacing=4;treeFolding=1;treeMoving=1;newEdgeStyle={&quot;edgeStyle&quot;:&quot;entityRelationEdgeStyle&quot;,&quot;startArrow&quot;:&quot;none&quot;,&quot;endArrow&quot;:&quot;none&quot;,&quot;segment&quot;:10,&quot;curved&quot;:1};" vertex="1" parent="1">
          <mxGeometry x="705" y="2060" width="120" height="30" as="geometry" />
        </mxCell>
        <mxCell id="2C_4C3Kt78hkYXCEWfJR-85" value="" style="edgeStyle=entityRelationEdgeStyle;startArrow=none;endArrow=none;segment=10;curved=1;rounded=0;exitX=1;exitY=0.5;exitDx=0;exitDy=0;" edge="1" parent="1" source="2C_4C3Kt78hkYXCEWfJR-80" target="2C_4C3Kt78hkYXCEWfJR-84">
          <mxGeometry relative="1" as="geometry">
            <mxPoint x="732" y="2105" as="sourcePoint" />
          </mxGeometry>
        </mxCell>
        <mxCell id="2C_4C3Kt78hkYXCEWfJR-86" value="ft_eval1：为Fp类型。" style="whiteSpace=wrap;html=1;rounded=1;arcSize=50;align=center;verticalAlign=middle;strokeWidth=1;autosize=1;spacing=4;treeFolding=1;treeMoving=1;newEdgeStyle={&quot;edgeStyle&quot;:&quot;entityRelationEdgeStyle&quot;,&quot;startArrow&quot;:&quot;none&quot;,&quot;endArrow&quot;:&quot;none&quot;,&quot;segment&quot;:10,&quot;curved&quot;:1};" vertex="1" parent="1">
          <mxGeometry x="694.3800000000001" y="2140" width="160" height="30" as="geometry" />
        </mxCell>
        <mxCell id="2C_4C3Kt78hkYXCEWfJR-87" value="" style="edgeStyle=entityRelationEdgeStyle;startArrow=none;endArrow=none;segment=10;curved=1;rounded=0;exitX=1;exitY=0.75;exitDx=0;exitDy=0;" edge="1" parent="1" source="2C_4C3Kt78hkYXCEWfJR-80" target="2C_4C3Kt78hkYXCEWfJR-86">
          <mxGeometry relative="1" as="geometry">
            <mxPoint x="732" y="2105" as="sourcePoint" />
          </mxGeometry>
        </mxCell>
        <mxCell id="2C_4C3Kt78hkYXCEWfJR-88" value="challenge_polynomial_commitment" style="whiteSpace=wrap;html=1;rounded=1;arcSize=50;align=center;verticalAlign=middle;strokeWidth=1;autosize=1;spacing=4;treeFolding=1;treeMoving=1;newEdgeStyle={&quot;edgeStyle&quot;:&quot;entityRelationEdgeStyle&quot;,&quot;startArrow&quot;:&quot;none&quot;,&quot;endArrow&quot;:&quot;none&quot;,&quot;segment&quot;:10,&quot;curved&quot;:1};" vertex="1" parent="1">
          <mxGeometry x="889.3800000000001" y="1628" width="230" height="30" as="geometry" />
        </mxCell>
        <mxCell id="2C_4C3Kt78hkYXCEWfJR-89" value="old_bulletproof_challenges" style="whiteSpace=wrap;html=1;rounded=1;arcSize=50;align=center;verticalAlign=middle;strokeWidth=1;autosize=1;spacing=4;treeFolding=1;treeMoving=1;newEdgeStyle={&quot;edgeStyle&quot;:&quot;entityRelationEdgeStyle&quot;,&quot;startArrow&quot;:&quot;none&quot;,&quot;endArrow&quot;:&quot;none&quot;,&quot;segment&quot;:10,&quot;curved&quot;:1};" vertex="1" parent="1">
          <mxGeometry x="893" y="1570" width="190" height="30" as="geometry" />
        </mxCell>
        <mxCell id="2C_4C3Kt78hkYXCEWfJR-90" value="" style="edgeStyle=entityRelationEdgeStyle;startArrow=none;endArrow=none;segment=10;curved=1;rounded=0;fontSize=14;entryX=0;entryY=0.5;entryDx=0;entryDy=0;" edge="1" parent="1" target="2C_4C3Kt78hkYXCEWfJR-88">
          <mxGeometry relative="1" as="geometry">
            <mxPoint x="813" y="1638" as="sourcePoint" />
            <mxPoint x="1048" y="1611" as="targetPoint" />
          </mxGeometry>
        </mxCell>
        <mxCell id="2C_4C3Kt78hkYXCEWfJR-91" value="Proof.Base.Step.t&amp;nbsp;" style="ellipse;whiteSpace=wrap;html=1;fontSize=14;" vertex="1" parent="1">
          <mxGeometry x="1210" y="1246" width="170" height="70" as="geometry" />
        </mxCell>
        <mxCell id="2C_4C3Kt78hkYXCEWfJR-92" value="Step.Statement" style="whiteSpace=wrap;html=1;rounded=1;arcSize=50;align=center;verticalAlign=middle;strokeWidth=1;autosize=1;spacing=4;treeFolding=1;treeMoving=1;newEdgeStyle={&quot;edgeStyle&quot;:&quot;entityRelationEdgeStyle&quot;,&quot;startArrow&quot;:&quot;none&quot;,&quot;endArrow&quot;:&quot;none&quot;,&quot;segment&quot;:10,&quot;curved&quot;:1};fontSize=14;" vertex="1" parent="1">
          <mxGeometry x="1410" y="1076" width="140" height="30" as="geometry" />
        </mxCell>
        <mxCell id="2C_4C3Kt78hkYXCEWfJR-93" value="" style="edgeStyle=entityRelationEdgeStyle;startArrow=none;endArrow=none;segment=10;curved=1;rounded=0;fontSize=14;exitX=0.785;exitY=0.079;exitDx=0;exitDy=0;exitPerimeter=0;" edge="1" parent="1" source="2C_4C3Kt78hkYXCEWfJR-91" target="2C_4C3Kt78hkYXCEWfJR-92">
          <mxGeometry relative="1" as="geometry">
            <mxPoint x="1430" y="1186" as="sourcePoint" />
          </mxGeometry>
        </mxCell>
        <mxCell id="2C_4C3Kt78hkYXCEWfJR-94" value="index: int" style="whiteSpace=wrap;html=1;rounded=1;arcSize=50;align=center;verticalAlign=middle;strokeWidth=1;autosize=1;spacing=4;treeFolding=1;treeMoving=1;newEdgeStyle={&quot;edgeStyle&quot;:&quot;entityRelationEdgeStyle&quot;,&quot;startArrow&quot;:&quot;none&quot;,&quot;endArrow&quot;:&quot;none&quot;,&quot;segment&quot;:10,&quot;curved&quot;:1};fontSize=14;" vertex="1" parent="1">
          <mxGeometry x="1430" y="1226" width="138.43" height="33" as="geometry" />
        </mxCell>
        <mxCell id="2C_4C3Kt78hkYXCEWfJR-95" value="" style="edgeStyle=entityRelationEdgeStyle;startArrow=none;endArrow=none;segment=10;curved=1;rounded=0;fontSize=14;" edge="1" parent="1" source="2C_4C3Kt78hkYXCEWfJR-91" target="2C_4C3Kt78hkYXCEWfJR-94">
          <mxGeometry relative="1" as="geometry">
            <mxPoint x="1250" y="1267.49" as="sourcePoint" />
          </mxGeometry>
        </mxCell>
        <mxCell id="2C_4C3Kt78hkYXCEWfJR-96" value="pre_evals" style="whiteSpace=wrap;html=1;rounded=1;arcSize=50;align=center;verticalAlign=middle;strokeWidth=1;autosize=1;spacing=4;treeFolding=1;treeMoving=1;newEdgeStyle={&quot;edgeStyle&quot;:&quot;entityRelationEdgeStyle&quot;,&quot;startArrow&quot;:&quot;none&quot;,&quot;endArrow&quot;:&quot;none&quot;,&quot;segment&quot;:10,&quot;curved&quot;:1};fontSize=14;" vertex="1" parent="1">
          <mxGeometry x="1405" y="1356" width="150" height="33" as="geometry" />
        </mxCell>
        <mxCell id="2C_4C3Kt78hkYXCEWfJR-97" value="" style="edgeStyle=entityRelationEdgeStyle;startArrow=none;endArrow=none;segment=10;curved=1;rounded=0;fontSize=14;exitX=0.926;exitY=0.764;exitDx=0;exitDy=0;exitPerimeter=0;" edge="1" parent="1" source="2C_4C3Kt78hkYXCEWfJR-91" target="2C_4C3Kt78hkYXCEWfJR-96">
          <mxGeometry relative="1" as="geometry">
            <mxPoint x="1370" y="1330" as="sourcePoint" />
          </mxGeometry>
        </mxCell>
        <mxCell id="2C_4C3Kt78hkYXCEWfJR-98" value="proof: Tick.Proof" style="whiteSpace=wrap;html=1;rounded=1;arcSize=50;align=center;verticalAlign=middle;strokeWidth=1;autosize=1;spacing=4;treeFolding=1;treeMoving=1;newEdgeStyle={&quot;edgeStyle&quot;:&quot;entityRelationEdgeStyle&quot;,&quot;startArrow&quot;:&quot;none&quot;,&quot;endArrow&quot;:&quot;none&quot;,&quot;segment&quot;:10,&quot;curved&quot;:1};fontSize=14;" vertex="1" parent="1">
          <mxGeometry x="1405" y="1506" width="140" height="30" as="geometry" />
        </mxCell>
        <mxCell id="2C_4C3Kt78hkYXCEWfJR-99" value="" style="edgeStyle=entityRelationEdgeStyle;startArrow=none;endArrow=none;segment=10;curved=1;rounded=0;fontSize=14;" edge="1" parent="1" target="2C_4C3Kt78hkYXCEWfJR-98">
          <mxGeometry relative="1" as="geometry">
            <mxPoint x="1337" y="1314" as="sourcePoint" />
          </mxGeometry>
        </mxCell>
        <mxCell id="2C_4C3Kt78hkYXCEWfJR-100" value="pass_through" style="whiteSpace=wrap;html=1;rounded=1;arcSize=50;align=center;verticalAlign=middle;strokeWidth=1;autosize=1;spacing=4;treeFolding=1;treeMoving=1;newEdgeStyle={&quot;edgeStyle&quot;:&quot;entityRelationEdgeStyle&quot;,&quot;startArrow&quot;:&quot;none&quot;,&quot;endArrow&quot;:&quot;none&quot;,&quot;segment&quot;:10,&quot;curved&quot;:1};fontSize=14;" vertex="1" parent="1">
          <mxGeometry x="1595" y="904" width="125" height="40" as="geometry" />
        </mxCell>
        <mxCell id="2C_4C3Kt78hkYXCEWfJR-101" value="" style="edgeStyle=entityRelationEdgeStyle;startArrow=none;endArrow=none;segment=10;curved=1;rounded=0;fontSize=14;" edge="1" parent="1" target="2C_4C3Kt78hkYXCEWfJR-100">
          <mxGeometry relative="1" as="geometry">
            <mxPoint x="1540" y="1076" as="sourcePoint" />
          </mxGeometry>
        </mxCell>
        <mxCell id="2C_4C3Kt78hkYXCEWfJR-102" value="Proof_state" style="whiteSpace=wrap;html=1;rounded=1;arcSize=50;align=center;verticalAlign=middle;strokeWidth=1;autosize=1;spacing=4;treeFolding=1;treeMoving=1;newEdgeStyle={&quot;edgeStyle&quot;:&quot;entityRelationEdgeStyle&quot;,&quot;startArrow&quot;:&quot;none&quot;,&quot;endArrow&quot;:&quot;none&quot;,&quot;segment&quot;:10,&quot;curved&quot;:1};fontSize=14;" vertex="1" parent="1">
          <mxGeometry x="1588" y="1154" width="139" height="32" as="geometry" />
        </mxCell>
        <mxCell id="2C_4C3Kt78hkYXCEWfJR-103" value="" style="edgeStyle=entityRelationEdgeStyle;startArrow=none;endArrow=none;segment=10;curved=1;rounded=0;fontSize=14;" edge="1" parent="1" target="2C_4C3Kt78hkYXCEWfJR-102">
          <mxGeometry relative="1" as="geometry">
            <mxPoint x="1547" y="1099" as="sourcePoint" />
          </mxGeometry>
        </mxCell>
        <mxCell id="2C_4C3Kt78hkYXCEWfJR-104" value="app_state" style="whiteSpace=wrap;html=1;rounded=1;arcSize=50;align=center;verticalAlign=middle;strokeWidth=1;autosize=1;spacing=4;treeFolding=1;treeMoving=1;newEdgeStyle={&quot;edgeStyle&quot;:&quot;entityRelationEdgeStyle&quot;,&quot;startArrow&quot;:&quot;none&quot;,&quot;endArrow&quot;:&quot;none&quot;,&quot;segment&quot;:10,&quot;curved&quot;:1};" vertex="1" parent="1">
          <mxGeometry x="1872.5" y="964" width="127.5" height="30" as="geometry" />
        </mxCell>
        <mxCell id="2C_4C3Kt78hkYXCEWfJR-105" value="" style="edgeStyle=entityRelationEdgeStyle;startArrow=none;endArrow=none;segment=10;curved=1;rounded=0;exitX=1;exitY=0.25;exitDx=0;exitDy=0;" edge="1" parent="1" source="2C_4C3Kt78hkYXCEWfJR-116" target="2C_4C3Kt78hkYXCEWfJR-104">
          <mxGeometry relative="1" as="geometry">
            <mxPoint x="1837" y="1090" as="sourcePoint" />
          </mxGeometry>
        </mxCell>
        <mxCell id="2C_4C3Kt78hkYXCEWfJR-106" value="dlog_plonk_index" style="whiteSpace=wrap;html=1;rounded=1;arcSize=50;align=center;verticalAlign=middle;strokeWidth=1;autosize=1;spacing=4;treeFolding=1;treeMoving=1;newEdgeStyle={&quot;edgeStyle&quot;:&quot;entityRelationEdgeStyle&quot;,&quot;startArrow&quot;:&quot;none&quot;,&quot;endArrow&quot;:&quot;none&quot;,&quot;segment&quot;:10,&quot;curved&quot;:1};" vertex="1" parent="1">
          <mxGeometry x="1862" y="1008" width="121.25" height="32" as="geometry" />
        </mxCell>
        <mxCell id="2C_4C3Kt78hkYXCEWfJR-107" value="" style="edgeStyle=entityRelationEdgeStyle;startArrow=none;endArrow=none;segment=10;curved=1;rounded=0;exitX=1;exitY=0.25;exitDx=0;exitDy=0;" edge="1" parent="1" source="2C_4C3Kt78hkYXCEWfJR-116" target="2C_4C3Kt78hkYXCEWfJR-106">
          <mxGeometry relative="1" as="geometry">
            <mxPoint x="1717" y="1014" as="sourcePoint" />
          </mxGeometry>
        </mxCell>
        <mxCell id="2C_4C3Kt78hkYXCEWfJR-108" value="challenge_polynomial_commitments" style="whiteSpace=wrap;html=1;rounded=1;arcSize=50;align=center;verticalAlign=middle;strokeWidth=1;autosize=1;spacing=4;treeFolding=1;treeMoving=1;newEdgeStyle={&quot;edgeStyle&quot;:&quot;entityRelationEdgeStyle&quot;,&quot;startArrow&quot;:&quot;none&quot;,&quot;endArrow&quot;:&quot;none&quot;,&quot;segment&quot;:10,&quot;curved&quot;:1};" vertex="1" parent="1">
          <mxGeometry x="1862" y="1048" width="240" height="30" as="geometry" />
        </mxCell>
        <mxCell id="2C_4C3Kt78hkYXCEWfJR-109" value="" style="edgeStyle=entityRelationEdgeStyle;startArrow=none;endArrow=none;segment=10;curved=1;rounded=0;exitX=1;exitY=0.25;exitDx=0;exitDy=0;" edge="1" parent="1" source="2C_4C3Kt78hkYXCEWfJR-116" target="2C_4C3Kt78hkYXCEWfJR-108">
          <mxGeometry relative="1" as="geometry">
            <mxPoint x="1744" y="1050.25" as="sourcePoint" />
          </mxGeometry>
        </mxCell>
        <mxCell id="2C_4C3Kt78hkYXCEWfJR-110" value="old_bulletproof_challenges" style="whiteSpace=wrap;html=1;rounded=1;arcSize=50;align=center;verticalAlign=middle;strokeWidth=1;autosize=1;spacing=4;treeFolding=1;treeMoving=1;newEdgeStyle={&quot;edgeStyle&quot;:&quot;entityRelationEdgeStyle&quot;,&quot;startArrow&quot;:&quot;none&quot;,&quot;endArrow&quot;:&quot;none&quot;,&quot;segment&quot;:10,&quot;curved&quot;:1};" vertex="1" parent="1">
          <mxGeometry x="1860" y="1088" width="190" height="30" as="geometry" />
        </mxCell>
        <mxCell id="2C_4C3Kt78hkYXCEWfJR-111" value="" style="edgeStyle=entityRelationEdgeStyle;startArrow=none;endArrow=none;segment=10;curved=1;rounded=0;exitX=1;exitY=0.25;exitDx=0;exitDy=0;" edge="1" parent="1" source="2C_4C3Kt78hkYXCEWfJR-116" target="2C_4C3Kt78hkYXCEWfJR-110">
          <mxGeometry relative="1" as="geometry">
            <mxPoint x="1744" y="1050.25" as="sourcePoint" />
          </mxGeometry>
        </mxCell>
        <mxCell id="2C_4C3Kt78hkYXCEWfJR-112" value="&amp;nbsp; &amp;nbsp; &amp;nbsp;unfinalized_proofs&lt;br&gt;&amp;nbsp; &amp;nbsp; &amp;nbsp; &amp;nbsp;(wrap_proof)" style="whiteSpace=wrap;html=1;rounded=1;arcSize=50;align=left;verticalAlign=middle;strokeWidth=1;autosize=1;spacing=4;treeFolding=1;treeMoving=1;newEdgeStyle={&quot;edgeStyle&quot;:&quot;entityRelationEdgeStyle&quot;,&quot;startArrow&quot;:&quot;none&quot;,&quot;endArrow&quot;:&quot;none&quot;,&quot;segment&quot;:10,&quot;curved&quot;:1};" vertex="1" parent="1">
          <mxGeometry x="1760.12" y="1194" width="150" height="40" as="geometry" />
        </mxCell>
        <mxCell id="2C_4C3Kt78hkYXCEWfJR-113" value="" style="edgeStyle=entityRelationEdgeStyle;startArrow=none;endArrow=none;segment=10;curved=1;rounded=0;exitX=0.957;exitY=0.969;exitDx=0;exitDy=0;exitPerimeter=0;" edge="1" parent="1" source="2C_4C3Kt78hkYXCEWfJR-102" target="2C_4C3Kt78hkYXCEWfJR-112">
          <mxGeometry relative="1" as="geometry">
            <mxPoint x="1619" y="1229" as="sourcePoint" />
          </mxGeometry>
        </mxCell>
        <mxCell id="2C_4C3Kt78hkYXCEWfJR-114" value="&lt;font style=&quot;font-size: 14px&quot;&gt;sponge_digest_before_evaluations&lt;/font&gt;" style="whiteSpace=wrap;html=1;rounded=1;arcSize=50;align=center;verticalAlign=middle;strokeWidth=1;autosize=1;spacing=4;treeFolding=1;treeMoving=1;newEdgeStyle={&quot;edgeStyle&quot;:&quot;entityRelationEdgeStyle&quot;,&quot;startArrow&quot;:&quot;none&quot;,&quot;endArrow&quot;:&quot;none&quot;,&quot;segment&quot;:10,&quot;curved&quot;:1};" vertex="1" parent="1">
          <mxGeometry x="1959.5" y="1179" width="260" height="30" as="geometry" />
        </mxCell>
        <mxCell id="2C_4C3Kt78hkYXCEWfJR-115" value="" style="edgeStyle=entityRelationEdgeStyle;startArrow=none;endArrow=none;segment=10;curved=1;rounded=0;exitX=1;exitY=0.5;exitDx=0;exitDy=0;" edge="1" parent="1" source="2C_4C3Kt78hkYXCEWfJR-112" target="2C_4C3Kt78hkYXCEWfJR-114">
          <mxGeometry relative="1" as="geometry">
            <mxPoint x="1916" y="1224" as="sourcePoint" />
          </mxGeometry>
        </mxCell>
        <mxCell id="2C_4C3Kt78hkYXCEWfJR-116" value="&amp;nbsp; &amp;nbsp; &amp;nbsp; &amp;nbsp;me_only" style="whiteSpace=wrap;html=1;rounded=1;arcSize=50;align=left;verticalAlign=middle;strokeWidth=1;autosize=1;spacing=4;treeFolding=1;treeMoving=1;newEdgeStyle={&quot;edgeStyle&quot;:&quot;entityRelationEdgeStyle&quot;,&quot;startArrow&quot;:&quot;none&quot;,&quot;endArrow&quot;:&quot;none&quot;,&quot;segment&quot;:10,&quot;curved&quot;:1};" vertex="1" collapsed="1" parent="1">
          <mxGeometry x="1707" y="1014" width="110" height="30" as="geometry" />
        </mxCell>
        <mxCell id="2C_4C3Kt78hkYXCEWfJR-117" value="should_finalize" style="whiteSpace=wrap;html=1;rounded=1;arcSize=50;align=center;verticalAlign=middle;strokeWidth=1;autosize=1;spacing=4;treeFolding=1;treeMoving=1;newEdgeStyle={&quot;edgeStyle&quot;:&quot;entityRelationEdgeStyle&quot;,&quot;startArrow&quot;:&quot;none&quot;,&quot;endArrow&quot;:&quot;none&quot;,&quot;segment&quot;:10,&quot;curved&quot;:1};fontSize=14;" vertex="1" parent="1">
          <mxGeometry x="1967" y="1124" width="130" height="30" as="geometry" />
        </mxCell>
        <mxCell id="2C_4C3Kt78hkYXCEWfJR-118" value="" style="edgeStyle=entityRelationEdgeStyle;startArrow=none;endArrow=none;segment=10;curved=1;rounded=0;fontSize=14;" edge="1" parent="1" target="2C_4C3Kt78hkYXCEWfJR-117">
          <mxGeometry relative="1" as="geometry">
            <mxPoint x="1907" y="1204" as="sourcePoint" />
          </mxGeometry>
        </mxCell>
        <mxCell id="2C_4C3Kt78hkYXCEWfJR-119" value="deferred_values" style="whiteSpace=wrap;html=1;rounded=1;arcSize=50;align=center;verticalAlign=middle;strokeWidth=1;autosize=1;spacing=4;treeFolding=1;treeMoving=1;newEdgeStyle={&quot;edgeStyle&quot;:&quot;entityRelationEdgeStyle&quot;,&quot;startArrow&quot;:&quot;none&quot;,&quot;endArrow&quot;:&quot;none&quot;,&quot;segment&quot;:10,&quot;curved&quot;:1};fontSize=14;" vertex="1" parent="1">
          <mxGeometry x="1962" y="1234" width="140" height="30" as="geometry" />
        </mxCell>
        <mxCell id="2C_4C3Kt78hkYXCEWfJR-120" value="" style="edgeStyle=entityRelationEdgeStyle;startArrow=none;endArrow=none;segment=10;curved=1;rounded=0;fontSize=14;exitX=1;exitY=0.75;exitDx=0;exitDy=0;" edge="1" parent="1" target="2C_4C3Kt78hkYXCEWfJR-119">
          <mxGeometry relative="1" as="geometry">
            <mxPoint x="1907" y="1226" as="sourcePoint" />
          </mxGeometry>
        </mxCell>
        <mxCell id="2C_4C3Kt78hkYXCEWfJR-121" value="&lt;font style=&quot;font-size: 14px&quot;&gt;ft_eval1：为Tock.Field结构&lt;/font&gt;" style="whiteSpace=wrap;html=1;rounded=1;arcSize=50;align=center;verticalAlign=middle;strokeWidth=1;autosize=1;spacing=4;treeFolding=1;treeMoving=1;newEdgeStyle={&quot;edgeStyle&quot;:&quot;entityRelationEdgeStyle&quot;,&quot;startArrow&quot;:&quot;none&quot;,&quot;endArrow&quot;:&quot;none&quot;,&quot;segment&quot;:10,&quot;curved&quot;:1};" vertex="1" parent="1">
          <mxGeometry x="1587" y="1314" width="210" height="30" as="geometry" />
        </mxCell>
        <mxCell id="2C_4C3Kt78hkYXCEWfJR-122" value="" style="edgeStyle=entityRelationEdgeStyle;startArrow=none;endArrow=none;segment=10;curved=1;rounded=0;exitX=1;exitY=0.5;exitDx=0;exitDy=0;" edge="1" parent="1" source="2C_4C3Kt78hkYXCEWfJR-96" target="2C_4C3Kt78hkYXCEWfJR-121">
          <mxGeometry relative="1" as="geometry">
            <mxPoint x="1597" y="1405.25" as="sourcePoint" />
          </mxGeometry>
        </mxCell>
        <mxCell id="2C_4C3Kt78hkYXCEWfJR-123" value="&lt;font style=&quot;font-size: 14px&quot;&gt;evals：为2元结构&lt;/font&gt;" style="whiteSpace=wrap;html=1;rounded=1;arcSize=50;align=center;verticalAlign=middle;strokeWidth=1;autosize=1;spacing=4;treeFolding=1;treeMoving=1;newEdgeStyle={&quot;edgeStyle&quot;:&quot;entityRelationEdgeStyle&quot;,&quot;startArrow&quot;:&quot;none&quot;,&quot;endArrow&quot;:&quot;none&quot;,&quot;segment&quot;:10,&quot;curved&quot;:1};" vertex="1" parent="1">
          <mxGeometry x="1600" y="1370" width="150" height="30" as="geometry" />
        </mxCell>
        <mxCell id="2C_4C3Kt78hkYXCEWfJR-124" value="" style="edgeStyle=entityRelationEdgeStyle;startArrow=none;endArrow=none;segment=10;curved=1;rounded=0;" edge="1" parent="1" target="2C_4C3Kt78hkYXCEWfJR-123">
          <mxGeometry relative="1" as="geometry">
            <mxPoint x="1557" y="1374" as="sourcePoint" />
          </mxGeometry>
        </mxCell>
        <mxCell id="2C_4C3Kt78hkYXCEWfJR-125" value="&lt;blockquote style=&quot;margin: 0 0 0 40px ; border: none ; padding: 0px&quot;&gt;&lt;font style=&quot;font-size: 14px&quot;&gt;messages&lt;/font&gt;&lt;/blockquote&gt;&lt;blockquote style=&quot;margin: 0 0 0 40px ; border: none ; padding: 0px&quot;&gt;&lt;font style=&quot;font-size: 14px&quot;&gt;(w, z, t 承诺)&lt;/font&gt;&lt;/blockquote&gt;" style="whiteSpace=wrap;html=1;rounded=1;arcSize=50;align=left;verticalAlign=middle;strokeWidth=1;autosize=1;spacing=4;treeFolding=1;treeMoving=1;newEdgeStyle={&quot;edgeStyle&quot;:&quot;entityRelationEdgeStyle&quot;,&quot;startArrow&quot;:&quot;none&quot;,&quot;endArrow&quot;:&quot;none&quot;,&quot;segment&quot;:10,&quot;curved&quot;:1};" vertex="1" parent="1">
          <mxGeometry x="1587" y="1454" width="160" height="45" as="geometry" />
        </mxCell>
        <mxCell id="2C_4C3Kt78hkYXCEWfJR-126" value="" style="edgeStyle=entityRelationEdgeStyle;startArrow=none;endArrow=none;segment=10;curved=1;rounded=0;entryX=0;entryY=0.5;entryDx=0;entryDy=0;" edge="1" parent="1" target="2C_4C3Kt78hkYXCEWfJR-125">
          <mxGeometry relative="1" as="geometry">
            <mxPoint x="1547" y="1514" as="sourcePoint" />
          </mxGeometry>
        </mxCell>
        <mxCell id="2C_4C3Kt78hkYXCEWfJR-127" value="&lt;blockquote style=&quot;margin: 0 0 0 40px ; border: none ; padding: 0px&quot;&gt;&lt;font style=&quot;font-size: 14px&quot;&gt;Openings&lt;/font&gt;&lt;/blockquote&gt;" style="whiteSpace=wrap;html=1;rounded=1;arcSize=50;align=left;verticalAlign=middle;strokeWidth=1;autosize=1;spacing=4;treeFolding=1;treeMoving=1;newEdgeStyle={&quot;edgeStyle&quot;:&quot;entityRelationEdgeStyle&quot;,&quot;startArrow&quot;:&quot;none&quot;,&quot;endArrow&quot;:&quot;none&quot;,&quot;segment&quot;:10,&quot;curved&quot;:1};" vertex="1" parent="1">
          <mxGeometry x="1588" y="1554" width="140" height="30" as="geometry" />
        </mxCell>
        <mxCell id="2C_4C3Kt78hkYXCEWfJR-128" value="" style="edgeStyle=entityRelationEdgeStyle;startArrow=none;endArrow=none;segment=10;curved=1;rounded=0;" edge="1" parent="1" target="2C_4C3Kt78hkYXCEWfJR-127">
          <mxGeometry relative="1" as="geometry">
            <mxPoint x="1547" y="1524" as="sourcePoint" />
          </mxGeometry>
        </mxCell>
        <mxCell id="2C_4C3Kt78hkYXCEWfJR-129" value="&lt;font style=&quot;font-size: 14px&quot;&gt;proof：Bulletproof结构。&lt;/font&gt;" style="whiteSpace=wrap;html=1;rounded=1;arcSize=50;align=center;verticalAlign=middle;strokeWidth=1;autosize=1;spacing=4;treeFolding=1;treeMoving=1;newEdgeStyle={&quot;edgeStyle&quot;:&quot;entityRelationEdgeStyle&quot;,&quot;startArrow&quot;:&quot;none&quot;,&quot;endArrow&quot;:&quot;none&quot;,&quot;segment&quot;:10,&quot;curved&quot;:1};" vertex="1" parent="1">
          <mxGeometry x="1777" y="1499" width="200" height="30" as="geometry" />
        </mxCell>
        <mxCell id="2C_4C3Kt78hkYXCEWfJR-130" value="" style="edgeStyle=entityRelationEdgeStyle;startArrow=none;endArrow=none;segment=10;curved=1;rounded=0;exitX=1;exitY=0.25;exitDx=0;exitDy=0;" edge="1" parent="1" source="2C_4C3Kt78hkYXCEWfJR-127" target="2C_4C3Kt78hkYXCEWfJR-129">
          <mxGeometry relative="1" as="geometry">
            <mxPoint x="1804" y="1609" as="sourcePoint" />
          </mxGeometry>
        </mxCell>
        <mxCell id="2C_4C3Kt78hkYXCEWfJR-131" value="evals：2元结构" style="whiteSpace=wrap;html=1;rounded=1;arcSize=50;align=center;verticalAlign=middle;strokeWidth=1;autosize=1;spacing=4;treeFolding=1;treeMoving=1;newEdgeStyle={&quot;edgeStyle&quot;:&quot;entityRelationEdgeStyle&quot;,&quot;startArrow&quot;:&quot;none&quot;,&quot;endArrow&quot;:&quot;none&quot;,&quot;segment&quot;:10,&quot;curved&quot;:1};" vertex="1" parent="1">
          <mxGeometry x="1777" y="1564" width="120" height="30" as="geometry" />
        </mxCell>
        <mxCell id="2C_4C3Kt78hkYXCEWfJR-132" value="" style="edgeStyle=entityRelationEdgeStyle;startArrow=none;endArrow=none;segment=10;curved=1;rounded=0;exitX=1;exitY=0.5;exitDx=0;exitDy=0;" edge="1" parent="1" source="2C_4C3Kt78hkYXCEWfJR-127" target="2C_4C3Kt78hkYXCEWfJR-131">
          <mxGeometry relative="1" as="geometry">
            <mxPoint x="1804" y="1609" as="sourcePoint" />
          </mxGeometry>
        </mxCell>
        <mxCell id="2C_4C3Kt78hkYXCEWfJR-133" value="ft_eval1：为Fp类型。" style="whiteSpace=wrap;html=1;rounded=1;arcSize=50;align=center;verticalAlign=middle;strokeWidth=1;autosize=1;spacing=4;treeFolding=1;treeMoving=1;newEdgeStyle={&quot;edgeStyle&quot;:&quot;entityRelationEdgeStyle&quot;,&quot;startArrow&quot;:&quot;none&quot;,&quot;endArrow&quot;:&quot;none&quot;,&quot;segment&quot;:10,&quot;curved&quot;:1};" vertex="1" parent="1">
          <mxGeometry x="1766.38" y="1644" width="160" height="30" as="geometry" />
        </mxCell>
        <mxCell id="2C_4C3Kt78hkYXCEWfJR-134" value="" style="edgeStyle=entityRelationEdgeStyle;startArrow=none;endArrow=none;segment=10;curved=1;rounded=0;exitX=1;exitY=0.75;exitDx=0;exitDy=0;" edge="1" parent="1" source="2C_4C3Kt78hkYXCEWfJR-127" target="2C_4C3Kt78hkYXCEWfJR-133">
          <mxGeometry relative="1" as="geometry">
            <mxPoint x="1804" y="1609" as="sourcePoint" />
          </mxGeometry>
        </mxCell>
        <mxCell id="2C_4C3Kt78hkYXCEWfJR-139" value="lr：为(G.Affine * G.Affine) array" style="whiteSpace=wrap;html=1;rounded=1;arcSize=50;align=center;verticalAlign=middle;strokeWidth=1;autosize=1;spacing=4;treeFolding=1;treeMoving=1;newEdgeStyle={&quot;edgeStyle&quot;:&quot;entityRelationEdgeStyle&quot;,&quot;startArrow&quot;:&quot;none&quot;,&quot;endArrow&quot;:&quot;none&quot;,&quot;segment&quot;:10,&quot;curved&quot;:1};" vertex="1" parent="1">
          <mxGeometry x="2014" y="1430" width="210" height="30" as="geometry" />
        </mxCell>
        <mxCell id="2C_4C3Kt78hkYXCEWfJR-140" value="z_1和z_2：均为Fp类型" style="whiteSpace=wrap;html=1;rounded=1;arcSize=50;align=center;verticalAlign=middle;strokeWidth=1;autosize=1;spacing=4;treeFolding=1;treeMoving=1;newEdgeStyle={&quot;edgeStyle&quot;:&quot;entityRelationEdgeStyle&quot;,&quot;startArrow&quot;:&quot;none&quot;,&quot;endArrow&quot;:&quot;none&quot;,&quot;segment&quot;:10,&quot;curved&quot;:1};" vertex="1" parent="1">
          <mxGeometry x="2014" y="1479" width="170" height="30" as="geometry" />
        </mxCell>
        <mxCell id="2C_4C3Kt78hkYXCEWfJR-141" value="challenge_polynomial_commitment" style="whiteSpace=wrap;html=1;rounded=1;arcSize=50;align=center;verticalAlign=middle;strokeWidth=1;autosize=1;spacing=4;treeFolding=1;treeMoving=1;newEdgeStyle={&quot;edgeStyle&quot;:&quot;entityRelationEdgeStyle&quot;,&quot;startArrow&quot;:&quot;none&quot;,&quot;endArrow&quot;:&quot;none&quot;,&quot;segment&quot;:10,&quot;curved&quot;:1};" vertex="1" parent="1">
          <mxGeometry x="2014" y="1575" width="230" height="30" as="geometry" />
        </mxCell>
        <mxCell id="2C_4C3Kt78hkYXCEWfJR-142" value="delta" style="whiteSpace=wrap;html=1;rounded=1;arcSize=50;align=center;verticalAlign=middle;strokeWidth=1;autosize=1;spacing=4;treeFolding=1;treeMoving=1;newEdgeStyle={&quot;edgeStyle&quot;:&quot;entityRelationEdgeStyle&quot;,&quot;startArrow&quot;:&quot;none&quot;,&quot;endArrow&quot;:&quot;none&quot;,&quot;segment&quot;:10,&quot;curved&quot;:1};" vertex="1" parent="1">
          <mxGeometry x="2019" y="1530" width="100" height="25" as="geometry" />
        </mxCell>
        <mxCell id="2C_4C3Kt78hkYXCEWfJR-143" value="" style="curved=1;endArrow=classic;html=1;rounded=0;fontSize=14;entryX=0;entryY=0.5;entryDx=0;entryDy=0;exitX=0.959;exitY=0.118;exitDx=0;exitDy=0;exitPerimeter=0;" edge="1" parent="1" source="2C_4C3Kt78hkYXCEWfJR-129" target="2C_4C3Kt78hkYXCEWfJR-139">
          <mxGeometry width="50" height="50" relative="1" as="geometry">
            <mxPoint x="1967" y="1494" as="sourcePoint" />
            <mxPoint x="1997" y="1444" as="targetPoint" />
            <Array as="points">
              <mxPoint x="1977" y="1494" />
              <mxPoint x="1987" y="1464" />
            </Array>
          </mxGeometry>
        </mxCell>
        <mxCell id="2C_4C3Kt78hkYXCEWfJR-144" value="" style="curved=1;endArrow=classic;html=1;rounded=0;fontSize=14;entryX=0;entryY=0.5;entryDx=0;entryDy=0;" edge="1" parent="1" target="2C_4C3Kt78hkYXCEWfJR-140">
          <mxGeometry width="50" height="50" relative="1" as="geometry">
            <mxPoint x="1977" y="1514" as="sourcePoint" />
            <mxPoint x="2044" y="1625" as="targetPoint" />
            <Array as="points">
              <mxPoint x="1977" y="1514" />
              <mxPoint x="1987" y="1504" />
            </Array>
          </mxGeometry>
        </mxCell>
        <mxCell id="2C_4C3Kt78hkYXCEWfJR-145" value="" style="curved=1;endArrow=classic;html=1;rounded=0;fontSize=14;exitX=0.97;exitY=0.96;exitDx=0;exitDy=0;exitPerimeter=0;" edge="1" parent="1" source="2C_4C3Kt78hkYXCEWfJR-129">
          <mxGeometry width="50" height="50" relative="1" as="geometry">
            <mxPoint x="1967" y="1524" as="sourcePoint" />
            <mxPoint x="2017" y="1543" as="targetPoint" />
            <Array as="points">
              <mxPoint x="1987" y="1534" />
              <mxPoint x="1987" y="1554" />
            </Array>
          </mxGeometry>
        </mxCell>
        <mxCell id="2C_4C3Kt78hkYXCEWfJR-146" value="" style="curved=1;endArrow=classic;html=1;rounded=0;fontSize=14;" edge="1" parent="1">
          <mxGeometry width="50" height="50" relative="1" as="geometry">
            <mxPoint x="1947" y="1534" as="sourcePoint" />
            <mxPoint x="2013" y="1594" as="targetPoint" />
            <Array as="points">
              <mxPoint x="1977" y="1574" />
              <mxPoint x="1977" y="1594" />
            </Array>
          </mxGeometry>
        </mxCell>
        <mxCell id="2C_4C3Kt78hkYXCEWfJR-147" value="&lt;font style=&quot;font-size: 14px&quot;&gt;challenge_polynomial_commitment&lt;/font&gt;" style="whiteSpace=wrap;html=1;rounded=1;arcSize=50;align=center;verticalAlign=middle;strokeWidth=1;autosize=1;spacing=4;treeFolding=1;treeMoving=1;newEdgeStyle={&quot;edgeStyle&quot;:&quot;entityRelationEdgeStyle&quot;,&quot;startArrow&quot;:&quot;none&quot;,&quot;endArrow&quot;:&quot;none&quot;,&quot;segment&quot;:10,&quot;curved&quot;:1};" vertex="1" parent="1">
          <mxGeometry x="1788.5" y="848" width="260" height="30" as="geometry" />
        </mxCell>
        <mxCell id="2C_4C3Kt78hkYXCEWfJR-148" value="" style="edgeStyle=entityRelationEdgeStyle;startArrow=none;endArrow=none;segment=10;curved=1;rounded=0;exitX=1;exitY=0.25;exitDx=0;exitDy=0;" edge="1" parent="1" target="2C_4C3Kt78hkYXCEWfJR-147">
          <mxGeometry relative="1" as="geometry">
            <mxPoint x="1712.5" y="919.5" as="sourcePoint" />
          </mxGeometry>
        </mxCell>
        <mxCell id="2C_4C3Kt78hkYXCEWfJR-149" value="old_bulletproof_challenges" style="whiteSpace=wrap;html=1;rounded=1;arcSize=50;align=center;verticalAlign=middle;strokeWidth=1;autosize=1;spacing=4;treeFolding=1;treeMoving=1;newEdgeStyle={&quot;edgeStyle&quot;:&quot;entityRelationEdgeStyle&quot;,&quot;startArrow&quot;:&quot;none&quot;,&quot;endArrow&quot;:&quot;none&quot;,&quot;segment&quot;:10,&quot;curved&quot;:1};" vertex="1" parent="1">
          <mxGeometry x="1799.5" y="896" width="190" height="30" as="geometry" />
        </mxCell>
        <mxCell id="2C_4C3Kt78hkYXCEWfJR-150" value="" style="edgeStyle=entityRelationEdgeStyle;startArrow=none;endArrow=none;segment=10;curved=1;rounded=0;exitX=1;exitY=0.25;exitDx=0;exitDy=0;" edge="1" parent="1" target="2C_4C3Kt78hkYXCEWfJR-149">
          <mxGeometry relative="1" as="geometry">
            <mxPoint x="1712.5" y="919.5" as="sourcePoint" />
          </mxGeometry>
        </mxCell>
        <mxCell id="2C_4C3Kt78hkYXCEWfJR-151" value="" style="curved=1;endArrow=classic;html=1;rounded=0;fontSize=14;entryX=0.385;entryY=1.033;entryDx=0;entryDy=0;entryPerimeter=0;" edge="1" parent="1" target="2C_4C3Kt78hkYXCEWfJR-116">
          <mxGeometry width="50" height="50" relative="1" as="geometry">
            <mxPoint x="1717" y="1154" as="sourcePoint" />
            <mxPoint x="1767" y="1104" as="targetPoint" />
            <Array as="points">
              <mxPoint x="1727" y="1134" />
              <mxPoint x="1717" y="1104" />
            </Array>
          </mxGeometry>
        </mxCell>
        <mxCell id="2C_4C3Kt78hkYXCEWfJR-172" style="edgeStyle=orthogonalEdgeStyle;rounded=0;orthogonalLoop=1;jettySize=auto;html=1;exitX=1;exitY=0.5;exitDx=0;exitDy=0;entryX=0;entryY=0.5;entryDx=0;entryDy=0;entryPerimeter=0;fontSize=18;fillColor=#e51400;strokeColor=#B20000;" edge="1" parent="1" source="2C_4C3Kt78hkYXCEWfJR-152" target="2C_4C3Kt78hkYXCEWfJR-153">
          <mxGeometry relative="1" as="geometry">
            <Array as="points">
              <mxPoint x="480" y="1281" />
              <mxPoint x="480" y="1281" />
            </Array>
          </mxGeometry>
        </mxCell>
        <mxCell id="2C_4C3Kt78hkYXCEWfJR-189" value="rule. main" style="edgeLabel;html=1;align=center;verticalAlign=middle;resizable=0;points=[];fontSize=18;" vertex="1" connectable="0" parent="2C_4C3Kt78hkYXCEWfJR-172">
          <mxGeometry x="-0.129" relative="1" as="geometry">
            <mxPoint x="-1" as="offset" />
          </mxGeometry>
        </mxCell>
        <mxCell id="2C_4C3Kt78hkYXCEWfJR-152" value="&lt;font style=&quot;font-size: 18px&quot;&gt;rule&lt;/font&gt;" style="ellipse;whiteSpace=wrap;html=1;fontSize=14;" vertex="1" parent="1">
          <mxGeometry x="150" y="1246" width="170" height="70" as="geometry" />
        </mxCell>
        <mxCell id="2C_4C3Kt78hkYXCEWfJR-153" value="step&amp;nbsp;" style="shape=singleArrow;whiteSpace=wrap;html=1;fontSize=18;" vertex="1" parent="1">
          <mxGeometry x="940" y="1241" width="262" height="80" as="geometry" />
        </mxCell>
        <mxCell id="2C_4C3Kt78hkYXCEWfJR-155" value="verify_one" style="shape=step;perimeter=stepPerimeter;whiteSpace=wrap;html=1;fixedSize=1;fontSize=18;rotation=65;fillColor=#fff2cc;strokeColor=#d6b656;" vertex="1" parent="1">
          <mxGeometry x="940" y="1052" width="152" height="78" as="geometry" />
        </mxCell>
        <mxCell id="2C_4C3Kt78hkYXCEWfJR-156" value="verify_one" style="shape=step;perimeter=stepPerimeter;whiteSpace=wrap;html=1;fixedSize=1;fontSize=18;rotation=-60;fillColor=#fff2cc;strokeColor=#d6b656;" vertex="1" parent="1">
          <mxGeometry x="950.0049915867226" y="1380.0015040226729" width="152" height="78" as="geometry" />
        </mxCell>
        <mxCell id="2C_4C3Kt78hkYXCEWfJR-157" value="" style="curved=1;endArrow=classic;html=1;rounded=0;fontSize=18;exitX=1;exitY=0.75;exitDx=0;exitDy=0;entryX=0;entryY=0.25;entryDx=0;entryDy=0;fillColor=#0050ef;strokeColor=#001DBC;" edge="1" parent="1" source="2C_4C3Kt78hkYXCEWfJR-22" target="2C_4C3Kt78hkYXCEWfJR-155">
          <mxGeometry width="50" height="50" relative="1" as="geometry">
            <mxPoint x="930" y="930" as="sourcePoint" />
            <mxPoint x="980" y="880" as="targetPoint" />
            <Array as="points">
              <mxPoint x="940" y="940" />
            </Array>
          </mxGeometry>
        </mxCell>
        <mxCell id="2C_4C3Kt78hkYXCEWfJR-158" value="" style="curved=1;endArrow=classic;html=1;rounded=0;fontSize=18;entryX=0;entryY=0.75;entryDx=0;entryDy=0;fillColor=#d80073;strokeColor=#A50040;" edge="1" parent="1" target="2C_4C3Kt78hkYXCEWfJR-155">
          <mxGeometry width="50" height="50" relative="1" as="geometry">
            <mxPoint x="790" y="1030" as="sourcePoint" />
            <mxPoint x="1243.5863628341954" y="1047.9568093757937" as="targetPoint" />
            <Array as="points">
              <mxPoint x="880" y="950" />
            </Array>
          </mxGeometry>
        </mxCell>
        <mxCell id="2C_4C3Kt78hkYXCEWfJR-160" value="" style="curved=1;endArrow=classic;html=1;rounded=0;fontSize=18;exitX=0.625;exitY=0.167;exitDx=0;exitDy=0;exitPerimeter=0;fillColor=#d80073;strokeColor=#A50040;" edge="1" parent="1" source="2C_4C3Kt78hkYXCEWfJR-82">
          <mxGeometry width="50" height="50" relative="1" as="geometry">
            <mxPoint x="830" y="2000.0100000000002" as="sourcePoint" />
            <mxPoint x="1060" y="1450" as="targetPoint" />
            <Array as="points">
              <mxPoint x="1140" y="1760" />
              <mxPoint x="1180" y="1720" />
              <mxPoint x="1230" y="1550" />
            </Array>
          </mxGeometry>
        </mxCell>
        <mxCell id="2C_4C3Kt78hkYXCEWfJR-161" value="" style="curved=1;endArrow=classic;html=1;rounded=0;fontSize=18;fillColor=#0050ef;strokeColor=#001DBC;exitX=1;exitY=0.5;exitDx=0;exitDy=0;" edge="1" parent="1" source="2C_4C3Kt78hkYXCEWfJR-67">
          <mxGeometry width="50" height="50" relative="1" as="geometry">
            <mxPoint x="840" y="1762" as="sourcePoint" />
            <mxPoint x="1040" y="1480" as="targetPoint" />
            <Array as="points">
              <mxPoint x="1120" y="1710" />
              <mxPoint x="1150" y="1700" />
              <mxPoint x="1140" y="1580" />
            </Array>
          </mxGeometry>
        </mxCell>
        <mxCell id="2C_4C3Kt78hkYXCEWfJR-162" value="" style="endArrow=classic;html=1;rounded=0;fontSize=18;exitX=1;exitY=0.5;exitDx=0;exitDy=0;entryX=0.472;entryY=0.692;entryDx=0;entryDy=0;entryPerimeter=0;" edge="1" parent="1" source="2C_4C3Kt78hkYXCEWfJR-156" target="2C_4C3Kt78hkYXCEWfJR-153">
          <mxGeometry width="50" height="50" relative="1" as="geometry">
            <mxPoint x="910" y="1390" as="sourcePoint" />
            <mxPoint x="960" y="1340" as="targetPoint" />
          </mxGeometry>
        </mxCell>
        <mxCell id="2C_4C3Kt78hkYXCEWfJR-163" value="" style="endArrow=classic;html=1;rounded=0;fontSize=18;entryX=0.447;entryY=0.325;entryDx=0;entryDy=0;entryPerimeter=0;" edge="1" parent="1" target="2C_4C3Kt78hkYXCEWfJR-153">
          <mxGeometry width="50" height="50" relative="1" as="geometry">
            <mxPoint x="1050" y="1160" as="sourcePoint" />
            <mxPoint x="1169.6590084132777" y="1043.1764266649448" as="targetPoint" />
          </mxGeometry>
        </mxCell>
        <mxCell id="2C_4C3Kt78hkYXCEWfJR-164" value="" style="curved=1;endArrow=classic;html=1;rounded=0;fontSize=18;entryX=0.25;entryY=1;entryDx=0;entryDy=0;fillColor=#6a00ff;strokeColor=#3700CC;exitX=1;exitY=0.25;exitDx=0;exitDy=0;" edge="1" parent="1" source="2C_4C3Kt78hkYXCEWfJR-86" target="2C_4C3Kt78hkYXCEWfJR-96">
          <mxGeometry width="50" height="50" relative="1" as="geometry">
            <mxPoint x="860" y="2150" as="sourcePoint" />
            <mxPoint x="1230" y="1610" as="targetPoint" />
            <Array as="points">
              <mxPoint x="1250" y="1820" />
              <mxPoint x="1280" y="1720" />
            </Array>
          </mxGeometry>
        </mxCell>
        <mxCell id="2C_4C3Kt78hkYXCEWfJR-167" value="" style="endArrow=none;html=1;rounded=0;fontSize=18;exitX=1;exitY=0.25;exitDx=0;exitDy=0;fillColor=#6a00ff;strokeColor=#3700CC;" edge="1" parent="1" source="2C_4C3Kt78hkYXCEWfJR-84">
          <mxGeometry width="50" height="50" relative="1" as="geometry">
            <mxPoint x="1180" y="1690" as="sourcePoint" />
            <mxPoint x="930" y="2090" as="targetPoint" />
          </mxGeometry>
        </mxCell>
        <mxCell id="2C_4C3Kt78hkYXCEWfJR-168" value="" style="curved=1;endArrow=classic;html=1;rounded=0;fontSize=18;fillColor=#6a00ff;strokeColor=#3700CC;exitX=1;exitY=0.5;exitDx=0;exitDy=0;" edge="1" parent="1" source="2C_4C3Kt78hkYXCEWfJR-41">
          <mxGeometry width="50" height="50" relative="1" as="geometry">
            <mxPoint x="690" y="920" as="sourcePoint" />
            <mxPoint x="1440" y="1350" as="targetPoint" />
            <Array as="points">
              <mxPoint x="1100" y="1195" />
              <mxPoint x="1360" y="1150" />
            </Array>
          </mxGeometry>
        </mxCell>
        <mxCell id="2C_4C3Kt78hkYXCEWfJR-170" value="" style="endArrow=none;html=1;rounded=0;fontSize=18;exitX=1;exitY=0.5;exitDx=0;exitDy=0;fillColor=#6a00ff;strokeColor=#3700CC;" edge="1" parent="1" source="2C_4C3Kt78hkYXCEWfJR-39">
          <mxGeometry width="50" height="50" relative="1" as="geometry">
            <mxPoint x="1360" y="620" as="sourcePoint" />
            <mxPoint x="930" y="1190" as="targetPoint" />
          </mxGeometry>
        </mxCell>
        <mxCell id="2C_4C3Kt78hkYXCEWfJR-177" value="" style="endArrow=none;html=1;rounded=0;fontSize=18;exitX=1;exitY=0.75;exitDx=0;exitDy=0;fillColor=#0050ef;strokeColor=#001DBC;" edge="1" parent="1" source="2C_4C3Kt78hkYXCEWfJR-29">
          <mxGeometry width="50" height="50" relative="1" as="geometry">
            <mxPoint x="720" y="910" as="sourcePoint" />
            <mxPoint x="890" y="880" as="targetPoint" />
          </mxGeometry>
        </mxCell>
        <mxCell id="2C_4C3Kt78hkYXCEWfJR-178" value="" style="endArrow=none;html=1;rounded=0;fontSize=18;exitX=1;exitY=0.25;exitDx=0;exitDy=0;fillColor=#0050ef;strokeColor=#001DBC;" edge="1" parent="1" source="2C_4C3Kt78hkYXCEWfJR-31">
          <mxGeometry width="50" height="50" relative="1" as="geometry">
            <mxPoint x="1150" y="800" as="sourcePoint" />
            <mxPoint x="890" y="880" as="targetPoint" />
          </mxGeometry>
        </mxCell>
        <mxCell id="2C_4C3Kt78hkYXCEWfJR-179" value="" style="endArrow=none;html=1;rounded=0;fontSize=18;exitX=1;exitY=0.5;exitDx=0;exitDy=0;fillColor=#0050ef;strokeColor=#001DBC;" edge="1" parent="1" source="2C_4C3Kt78hkYXCEWfJR-74">
          <mxGeometry width="50" height="50" relative="1" as="geometry">
            <mxPoint x="880" y="1870" as="sourcePoint" />
            <mxPoint x="950" y="1740" as="targetPoint" />
          </mxGeometry>
        </mxCell>
        <mxCell id="2C_4C3Kt78hkYXCEWfJR-180" value="" style="endArrow=none;html=1;rounded=0;fontSize=18;exitX=1;exitY=0.5;exitDx=0;exitDy=0;fillColor=#0050ef;strokeColor=#001DBC;" edge="1" parent="1" source="2C_4C3Kt78hkYXCEWfJR-76">
          <mxGeometry width="50" height="50" relative="1" as="geometry">
            <mxPoint x="1320" y="1950" as="sourcePoint" />
            <mxPoint x="950" y="1740" as="targetPoint" />
          </mxGeometry>
        </mxCell>
        <mxCell id="2C_4C3Kt78hkYXCEWfJR-181" value="" style="curved=1;endArrow=classic;html=1;rounded=0;fontSize=18;exitX=0.5;exitY=1;exitDx=0;exitDy=0;fillColor=#1ba1e2;strokeColor=#006EAF;" edge="1" parent="1" source="2C_4C3Kt78hkYXCEWfJR-53">
          <mxGeometry width="50" height="50" relative="1" as="geometry">
            <mxPoint x="330" y="2220" as="sourcePoint" />
            <mxPoint x="1840" y="1240" as="targetPoint" />
            <Array as="points">
              <mxPoint x="660" y="2200" />
              <mxPoint x="940" y="2190" />
              <mxPoint x="1210" y="2080" />
              <mxPoint x="1520" y="1970" />
              <mxPoint x="2360" y="1780" />
              <mxPoint x="2270" y="1330" />
              <mxPoint x="1910" y="1380" />
            </Array>
          </mxGeometry>
        </mxCell>
        <mxCell id="2C_4C3Kt78hkYXCEWfJR-182" value="" style="curved=1;endArrow=classic;html=1;rounded=0;fontSize=18;fillColor=#0050ef;strokeColor=#001DBC;" edge="1" parent="1">
          <mxGeometry width="50" height="50" relative="1" as="geometry">
            <mxPoint x="410" y="1040" as="sourcePoint" />
            <mxPoint x="1830" y="1190" as="targetPoint" />
            <Array as="points">
              <mxPoint x="510" y="980" />
              <mxPoint x="650" y="960" />
              <mxPoint x="1000" y="890" />
              <mxPoint x="1150" y="890" />
              <mxPoint x="1340" y="920" />
            </Array>
          </mxGeometry>
        </mxCell>
        <mxCell id="2C_4C3Kt78hkYXCEWfJR-183" value="" style="curved=1;endArrow=classic;html=1;rounded=0;fontSize=18;exitX=1;exitY=0.5;exitDx=0;exitDy=0;fillColor=#d80073;strokeColor=#A50040;entryX=1;entryY=0.5;entryDx=0;entryDy=0;" edge="1" parent="1" source="2C_4C3Kt78hkYXCEWfJR-82" target="2C_4C3Kt78hkYXCEWfJR-108">
          <mxGeometry width="50" height="50" relative="1" as="geometry">
            <mxPoint x="1400" y="1860" as="sourcePoint" />
            <mxPoint x="2110" y="1070" as="targetPoint" />
            <Array as="points">
              <mxPoint x="1450" y="1860" />
              <mxPoint x="2020" y="1760" />
              <mxPoint x="2350" y="1670" />
              <mxPoint x="2350" y="1160" />
            </Array>
          </mxGeometry>
        </mxCell>
        <mxCell id="2C_4C3Kt78hkYXCEWfJR-184" value="" style="curved=1;endArrow=classic;html=1;rounded=0;fontSize=18;entryX=1;entryY=0;entryDx=0;entryDy=0;fillColor=#e51400;strokeColor=#B20000;" edge="1" parent="1" target="2C_4C3Kt78hkYXCEWfJR-108">
          <mxGeometry width="50" height="50" relative="1" as="geometry">
            <mxPoint x="870" y="1030" as="sourcePoint" />
            <mxPoint x="2210" y="800" as="targetPoint" />
            <Array as="points">
              <mxPoint x="1380" y="820" />
              <mxPoint x="1450" y="800" />
              <mxPoint x="2220" y="760" />
            </Array>
          </mxGeometry>
        </mxCell>
        <mxCell id="2C_4C3Kt78hkYXCEWfJR-185" value="" style="curved=1;endArrow=classic;html=1;rounded=0;fontSize=18;fillColor=#ffcd28;gradientColor=#ffa500;strokeColor=#d79b00;" edge="1" parent="1">
          <mxGeometry width="50" height="50" relative="1" as="geometry">
            <mxPoint x="840" y="820" as="sourcePoint" />
            <mxPoint x="1890" y="1120" as="targetPoint" />
            <Array as="points">
              <mxPoint x="1450" y="890" />
              <mxPoint x="1720" y="1120" />
              <mxPoint x="1790" y="1120" />
              <mxPoint x="1850" y="1130" />
            </Array>
          </mxGeometry>
        </mxCell>
        <mxCell id="2C_4C3Kt78hkYXCEWfJR-186" value="" style="curved=1;endArrow=classic;html=1;rounded=0;fontSize=18;fillColor=#ffcd28;gradientColor=#ffa500;strokeColor=#d79b00;" edge="1" parent="1">
          <mxGeometry width="50" height="50" relative="1" as="geometry">
            <mxPoint x="830" y="1770" as="sourcePoint" />
            <mxPoint x="1920" y="1120" as="targetPoint" />
            <Array as="points">
              <mxPoint x="1060" y="1770" />
              <mxPoint x="1250" y="1720" />
              <mxPoint x="1320" y="1330" />
              <mxPoint x="1610" y="1270" />
              <mxPoint x="1750" y="1190" />
            </Array>
          </mxGeometry>
        </mxCell>
        <mxCell id="2C_4C3Kt78hkYXCEWfJR-187" value="" style="curved=1;endArrow=classic;html=1;rounded=0;fontSize=18;exitX=0.5;exitY=0;exitDx=0;exitDy=0;fillColor=#d5e8d4;gradientColor=#97d077;strokeColor=#82b366;entryX=0.212;entryY=0.65;entryDx=0;entryDy=0;entryPerimeter=0;" edge="1" parent="1" source="2C_4C3Kt78hkYXCEWfJR-55" target="2C_4C3Kt78hkYXCEWfJR-153">
          <mxGeometry width="50" height="50" relative="1" as="geometry">
            <mxPoint x="430" y="1420" as="sourcePoint" />
            <mxPoint x="990" y="1300" as="targetPoint" />
            <Array as="points">
              <mxPoint x="550" y="1340" />
              <mxPoint x="720" y="1330" />
              <mxPoint x="900" y="1360" />
            </Array>
          </mxGeometry>
        </mxCell>
        <mxCell id="2C_4C3Kt78hkYXCEWfJR-188" value="" style="curved=1;endArrow=classic;html=1;rounded=0;fontSize=18;exitX=0.5;exitY=0;exitDx=0;exitDy=0;fillColor=#d5e8d4;gradientColor=#97d077;strokeColor=#82b366;entryX=0.635;entryY=0.332;entryDx=0;entryDy=0;entryPerimeter=0;" edge="1" parent="1" source="2C_4C3Kt78hkYXCEWfJR-10" target="2C_4C3Kt78hkYXCEWfJR-153">
          <mxGeometry width="50" height="50" relative="1" as="geometry">
            <mxPoint x="1260" y="590" as="sourcePoint" />
            <mxPoint x="1700.0439999999999" y="405" as="targetPoint" />
            <Array as="points">
              <mxPoint x="650" y="300" />
              <mxPoint x="1071" y="538" />
              <mxPoint x="1160" y="600" />
            </Array>
          </mxGeometry>
        </mxCell>
        <mxCell id="2C_4C3Kt78hkYXCEWfJR-190" value="" style="curved=1;endArrow=classic;html=1;rounded=0;fontSize=14;exitX=0.951;exitY=0.045;exitDx=0;exitDy=0;exitPerimeter=0;entryX=0.5;entryY=1;entryDx=0;entryDy=0;fillColor=#b0e3e6;strokeColor=#0e8088;" edge="1" parent="1" source="2C_4C3Kt78hkYXCEWfJR-88" target="2C_4C3Kt78hkYXCEWfJR-100">
          <mxGeometry width="50" height="50" relative="1" as="geometry">
            <mxPoint x="1170" y="1330" as="sourcePoint" />
            <mxPoint x="1220" y="1280" as="targetPoint" />
            <Array as="points">
              <mxPoint x="1240" y="1360" />
              <mxPoint x="1390" y="1340" />
              <mxPoint x="1390" y="1220" />
              <mxPoint x="1580" y="1120" />
            </Array>
          </mxGeometry>
        </mxCell>
        <mxCell id="2C_4C3Kt78hkYXCEWfJR-191" value="" style="endArrow=none;html=1;rounded=0;fontSize=14;exitX=1;exitY=0.5;exitDx=0;exitDy=0;fillColor=#b0e3e6;strokeColor=#0e8088;" edge="1" parent="1" source="2C_4C3Kt78hkYXCEWfJR-89">
          <mxGeometry width="50" height="50" relative="1" as="geometry">
            <mxPoint x="1170" y="1330" as="sourcePoint" />
            <mxPoint x="1150" y="1550" as="targetPoint" />
          </mxGeometry>
        </mxCell>
        <mxCell id="2C_4C3Kt78hkYXCEWfJR-192" value="" style="curved=1;endArrow=classic;html=1;rounded=0;fontSize=14;exitX=1;exitY=0.5;exitDx=0;exitDy=0;entryX=0.5;entryY=0;entryDx=0;entryDy=0;fillColor=#b0e3e6;strokeColor=#0e8088;" edge="1" parent="1" source="2C_4C3Kt78hkYXCEWfJR-44" target="2C_4C3Kt78hkYXCEWfJR-100">
          <mxGeometry width="50" height="50" relative="1" as="geometry">
            <mxPoint x="1330" y="780" as="sourcePoint" />
            <mxPoint x="1380" y="730" as="targetPoint" />
            <Array as="points">
              <mxPoint x="1330" y="740" />
            </Array>
          </mxGeometry>
        </mxCell>
        <mxCell id="2C_4C3Kt78hkYXCEWfJR-193" value="" style="endArrow=none;html=1;rounded=0;fontSize=14;exitX=1;exitY=0.75;exitDx=0;exitDy=0;fillColor=#b0e3e6;strokeColor=#0e8088;" edge="1" parent="1" source="2C_4C3Kt78hkYXCEWfJR-43">
          <mxGeometry width="50" height="50" relative="1" as="geometry">
            <mxPoint x="1170" y="1070" as="sourcePoint" />
            <mxPoint x="1220" y="690" as="targetPoint" />
          </mxGeometry>
        </mxCell>
      </root>
    </mxGraphModel>
  </diagram>
</mxfile>
